{
  "accessors": [
    {
      "bufferView": 2,
      "componentType": 5126,
      "count": 1160,
      "max": [
        0.40699729323387146,
        0.0035821013152599335,
        0.003581954864785075
      ],
      "min": [
        -0.40699729323387146,
        -0.0035820230841636658,
        -0.38759660720825195
      ],
      "type": "VEC3"
    },
    {
      "bufferView": 2,
      "byteOffset": 13920,
      "componentType": 5126,
      "count": 1160,
      "max": [
        0.9999940395355225,
        1.0,
        1.0
      ],
      "min": [
        -0.9999998211860657,
        -1.0,
        -1.0
      ],
      "type": "VEC3"
    },
    {
      "bufferView": 3,
      "componentType": 5126,
      "count": 1160,
      "max": [
        0.999998927116394,
        1.0,
        0.9999967813491821,
        1.0
      ],
      "min": [
        -0.998288094997406,
        -1.0,
        -0.9999967813491821,
        1.0
      ],
      "type": "VEC4"
    },
    {
      "bufferView": 1,
      "componentType": 5126,
      "count": 1160,
      "max": [
        0.8655993938446045,
        0.9973902702331543
      ],
      "min": [
        0.16422279179096222,
        0.001953133149072528
      ],
      "type": "VEC2"
    },
    {
      "bufferView": 1,
      "byteOffset": 9280,
      "componentType": 5126,
      "count": 1160,
      "max": [
        0.8655993938446045,
        0.9973902702331543
      ],
      "min": [
        0.16422279179096222,
        0.001953133149072528
      ],
      "type": "VEC2"
    },
    {
      "bufferView": 1,
      "byteOffset": 18560,
      "componentType": 5126,
      "count": 1160,
      "max": [
        0.8655993938446045,
        0.9973902702331543
      ],
      "min": [
        0.16422279179096222,
        0.001953133149072528
      ],
      "type": "VEC2"
    },
    {
      "bufferView": 1,
      "byteOffset": 27840,
      "componentType": 5126,
      "count": 1160,
      "max": [
        0.8655993938446045,
        0.9973902702331543
      ],
      "min": [
        0.16422279179096222,
        0.001953133149072528
      ],
      "type": "VEC2"
    },
    {
      "bufferView": 0,
      "componentType": 5125,
      "count": 5064,
      "type": "SCALAR"
    },
    {
      "bufferView": 2,
      "byteOffset": 27840,
      "componentType": 5126,
      "count": 1167,
      "max": [
        0.40699729323387146,
        0.05938909202814102,
        0.003581954864785075
      ],
      "min": [
        -0.40699729323387146,
        -0.04713692143559456,
        -0.38759660720825195
      ],
      "type": "VEC3"
    },
    {
      "bufferView": 2,
      "byteOffset": 41844,
      "componentType": 5126,
      "count": 1167,
      "max": [
        1.0,
        1.0,
        1.0
      ],
      "min": [
        -1.0,
        -1.0,
        -1.0
      ],
      "type": "VEC3"
    },
    {
      "bufferView": 3,
      "byteOffset": 18560,
      "componentType": 5126,
      "count": 1167,
      "max": [
        0.9999979138374329,
        1.0,
        0.999955415725708,
        1.0
      ],
      "min": [
        -0.9999989867210388,
        -1.0,
        -0.9999967813491821,
        1.0
      ],
      "type": "VEC4"
    },
    {
      "bufferView": 1,
      "byteOffset": 37120,
      "componentType": 5126,
      "count": 1167,
      "max": [
        0.8968673944473267,
        0.9969841837882996
      ],
      "min": [
        0.11046360433101654,
        0.001953133149072528
      ],
      "type": "VEC2"
    },
    {
      "bufferView": 1,
      "byteOffset": 46456,
      "componentType": 5126,
      "count": 1167,
      "max": [
        0.8968673944473267,
        0.9969841837882996
      ],
      "min": [
        0.11046360433101654,
        0.001953133149072528
      ],
      "type": "VEC2"
    },
    {
      "bufferView": 1,
      "byteOffset": 55792,
      "componentType": 5126,
      "count": 1167,
      "max": [
        0.8968673944473267,
        0.9969841837882996
      ],
      "min": [
        0.11046360433101654,
        0.001953133149072528
      ],
      "type": "VEC2"
    },
    {
      "bufferView": 1,
      "byteOffset": 65128,
      "componentType": 5126,
      "count": 1167,
      "max": [
        0.8968673944473267,
        0.9969841837882996
      ],
      "min": [
        0.11046360433101654,
        0.001953133149072528
      ],
      "type": "VEC2"
    },
    {
      "bufferView": 0,
      "byteOffset": 20256,
      "componentType": 5125,
      "count": 5136,
      "type": "SCALAR"
    },
    {
      "bufferView": 2,
      "byteOffset": 55848,
      "componentType": 5126,
      "count": 1013,
      "max": [
        0.40699729323387146,
        0.0035821013152599335,
        0.031368646770715714
      ],
      "min": [
        -0.40699729323387146,
        -0.003582024946808815,
        -0.38759660720825195
      ],
      "type": "VEC3"
    },
    {
      "bufferView": 2,
      "byteOffset": 68004,
      "componentType": 5126,
      "count": 1013,
      "max": [
        0.9999992847442627,
        1.0,
        1.0
      ],
      "min": [
        -0.9999998211860657,
        -1.0,
        -0.9999443888664246
      ],
      "type": "VEC3"
    },
    {
      "bufferView": 3,
      "byteOffset": 37232,
      "componentType": 5126,
      "count": 1013,
      "max": [
        0.9999964833259583,
        1.0,
        0.9999278783798218,
        1.0
      ],
      "min": [
        -1.0,
        -1.0,
        -0.9999983906745911,
        1.0
      ],
      "type": "VEC4"
    },
    {
      "bufferView": 1,
      "byteOffset": 74464,
      "componentType": 5126,
      "count": 1013,
      "max": [
        0.8961489796638489,
        0.998046875
      ],
      "min": [
        0.001953125,
        0.001953125
      ],
      "type": "VEC2"
    },
    {
      "bufferView": 1,
      "byteOffset": 82568,
      "componentType": 5126,
      "count": 1013,
      "max": [
        0.8961489796638489,
        0.998046875
      ],
      "min": [
        0.001953125,
        0.001953125
      ],
      "type": "VEC2"
    },
    {
      "bufferView": 1,
      "byteOffset": 90672,
      "componentType": 5126,
      "count": 1013,
      "max": [
        0.8961489796638489,
        0.998046875
      ],
      "min": [
        0.001953125,
        0.001953125
      ],
      "type": "VEC2"
    },
    {
      "bufferView": 1,
      "byteOffset": 98776,
      "componentType": 5126,
      "count": 1013,
      "max": [
        0.8961489796638489,
        0.998046875
      ],
      "min": [
        0.001953125,
        0.001953125
      ],
      "type": "VEC2"
    },
    {
      "bufferView": 0,
      "byteOffset": 40800,
      "componentType": 5125,
      "count": 4488,
      "type": "SCALAR"
    }
  ],
  "asset": {
    "extras": {
      "author": "Sousinho (https://sketchfab.com/sousinho)",
      "license": "CC-BY-4.0 (http://creativecommons.org/licenses/by/4.0/)",
      "source": "https://sketchfab.com/3d-models/clothes-hangers-999d17921fdd4ee7bb9c0901e660c88e",
      "title": "clothes hangers"
    },
    "generator": "Sketchfab-14.5.0",
    "version": "2.0"
  },
  "bufferViews": [
    {
      "buffer": 0,
      "byteLength": 58752,
      "name": "floatBufferViews",
      "target": 34963
    },
    {
      "buffer": 0,
      "byteLength": 106880,
      "byteOffset": 58752,
      "byteStride": 8,
      "name": "floatBufferViews",
      "target": 34962
    },
    {
      "buffer": 0,
      "byteLength": 80160,
      "byteOffset": 165632,
      "byteStride": 12,
      "name": "floatBufferViews",
      "target": 34962
    },
    {
      "buffer": 0,
      "byteLength": 53440,
      "byteOffset": 245792,
      "byteStride": 16,
      "name": "floatBufferViews",
      "target": 34962
    }
  ],
  "buffers": [
    {
      "byteLength": 299232,
      "uri": "scene.bin"
    }
  ],
  "images": [
    {
      "uri": "textures/M_hanger_baseColor.png"
    },
    {
      "uri": "textures/M_hanger_metallicRoughness.png"
    },
    {
      "uri": "textures/M_hanger_normal.png"
    }
  ],
  "materials": [
    {
      "doubleSided": true,
      "name": "M_hanger",
      "normalTexture": {
        "index": 2
      },
      "pbrMetallicRoughness": {
        "baseColorTexture": {
          "index": 0
        },
        "metallicRoughnessTexture": {
          "index": 1
        }
      }
    }
  ],
  "meshes": [
    {
      "name": "Object_0",
      "primitives": [
        {
          "attributes": {
            "NORMAL": 1,
            "POSITION": 0,
            "TANGENT": 2,
            "TEXCOORD_0": 3,
            "TEXCOORD_1": 4,
            "TEXCOORD_2": 5,
            "TEXCOORD_3": 6
          },
          "indices": 7,
          "material": 0,
          "mode": 4
        }
      ]
    },
    {
      "name": "Object_1",
      "primitives": [
        {
          "attributes": {
            "NORMAL": 9,
            "POSITION": 8,
            "TANGENT": 10,
            "TEXCOORD_0": 11,
            "TEXCOORD_1": 12,
            "TEXCOORD_2": 13,
            "TEXCOORD_3": 14
          },
          "indices": 15,
          "material": 0,
          "mode": 4
        }
      ]
    },
    {
      "name": "Object_2",
      "primitives": [
        {
          "attributes": {
            "NORMAL": 17,
            "POSITION": 16,
            "TANGENT": 18,
            "TEXCOORD_0": 19,
            "TEXCOORD_1": 20,
            "TEXCOORD_2": 21,
            "TEXCOORD_3": 22
          },
          "indices": 23,
          "material": 0,
          "mode": 4
        }
      ]
    }
  ],
  "nodes": [
    {
      "children": [
        1
      ],
      "matrix": [
        1.0,
        0.0,
        0.0,
        0.0,
        0.0,
        2.220446049250313e-16,
        -1.0,
        0.0,
        0.0,
        1.0,
        2.220446049250313e-16,
        0.0,
        0.0,
        0.0,
        0.0,
        1.0
      ],
      "name": "Sketchfab_model"
    },
    {
      "children": [
        2
      ],
      "name": "root"
    },
    {
      "children": [
        3,
        5,
        7
      ],
      "matrix": [
        1.0,
        0.0,
        0.0,
        0.0,
        0.0,
        2.220446049250313e-16,
        1.0,
        0.0,
        0.0,
        -1.0,
        2.220446049250313e-16,
        0.0,
        0.0,
        0.0,
        0.0,
        1.0
      ],
      "name": "GLTF_SceneRootNode"
    },
    {
      "children": [
        4
      ],
      "matrix": [
        1.0,
        0.0,
        0.0,
        0.0,
        0.0,
        8.429369480200677e-08,
        0.9999999999999966,
        0.0,
        0.0,
        -0.9999999999999966,
        8.429369480200677e-08,
        0.0,
        -0.8729115128517151,
        0.014934182167053223,
        0.01940823346376419,
        1.0
      ],
      "name": "SM_hanger_1_2"
    },
    {
      "mesh": 0,
      "name": "Object_4"
    },
    {
      "children": [
        6
      ],
      "matrix": [
        1.0,
        0.0,
        0.0,
        0.0,
        0.0,
        8.429369480200677e-08,
        0.9999999999999966,
        0.0,
        0.0,
        -0.9999999999999966,
        8.429369480200677e-08,
        0.0,
        -0.013930615969002247,
        0.013204831629991531,
        0.020591123029589653,
        1.0
      ],
      "name": "SM_hanger_2_3"
    },
    {
      "mesh": 1,
      "name": "Object_6"
    },
    {
      "children": [
        8
      ],
      "matrix": [
        1.0,
        0.0,
        0.0,
        0.0,
        0.0,
        8.429369480200677e-08,
        0.9999999999999966,
        0.0,
        0.0,
        -0.9999999999999966,
        8.429369480200677e-08,
        0.0,
        0.8359324336051941,
        0.03578929603099823,
        0.025460591539740562,
        1.0
      ],
      "name": "SM_hanger_3_4"
    },
    {
      "mesh": 2,
      "name": "Object_8"
    }
  ],
  "samplers": [
    {
      "magFilter": 9729,
      "minFilter": 9987,
      "wrapS": 10497,
      "wrapT": 10497
    }
  ],
  "scene": 0,
  "scenes": [
    {
      "name": "Sketchfab_Scene",
      "nodes": [
        0
      ]
    }
  ],
  "textures": [
    {
      "sampler": 0,
      "source": 0
    },
    {
      "sampler": 0,
      "source": 1
    },
    {
      "sampler": 0,
      "source": 2
    }
  ]
}
