{
  "accessors": [
    {
      "bufferView": 2,
      "componentType": 5126,
      "count": 666,
      "max": [
        0.4993347227573395,
        1.0,
        0.4413127303123474
      ],
      "min": [
        -0.49933478236198425,
        -1.0,
        -0.4413127601146698
      ],
      "type": "VEC3"
    },
    {
      "bufferView": 2,
      "byteOffset": 7992,
      "componentType": 5126,
      "count": 666,
      "max": [
        1.0,
        1.0,
        1.0
      ],
      "min": [
        -1.0,
        -1.0,
        -0.9999963045120239
      ],
      "type": "VEC3"
    },
    {
      "bufferView": 3,
      "componentType": 5126,
      "count": 666,
      "max": [
        1.0,
        0.9916558861732483,
        1.0,
        1.0
      ],
      "min": [
        -1.0,
        -1.0,
        -0.9827204346656799,
        -1.0
      ],
      "type": "VEC4"
    },
    {
      "bufferView": 1,
      "componentType": 5126,
      "count": 666,
      "max": [
        0.9962286353111267,
        0.9962281584739685
      ],
      "min": [
        0.0037662533577531576,
        0.013901114463806152
      ],
      "type": "VEC2"
    },
    {
      "bufferView": 1,
      "byteOffset": 5328,
      "componentType": 5126,
      "count": 666,
      "max": [
        0.9962286353111267,
        0.9962281584739685
      ],
      "min": [
        0.0037662533577531576,
        0.013901114463806152
      ],
      "type": "VEC2"
    },
    {
      "bufferView": 1,
      "byteOffset": 10656,
      "componentType": 5126,
      "count": 666,
      "max": [
        0.9962286353111267,
        0.9962281584739685
      ],
      "min": [
        0.0037662533577531576,
        0.013901114463806152
      ],
      "type": "VEC2"
    },
    {
      "bufferView": 1,
      "byteOffset": 15984,
      "componentType": 5126,
      "count": 666,
      "max": [
        0.9962286353111267,
        0.9962281584739685
      ],
      "min": [
        0.0037662533577531576,
        0.013901114463806152
      ],
      "type": "VEC2"
    },
    {
      "bufferView": 1,
      "byteOffset": 21312,
      "componentType": 5126,
      "count": 666,
      "max": [
        0.9962286353111267,
        0.9962281584739685
      ],
      "min": [
        0.0037662533577531576,
        0.013901114463806152
      ],
      "type": "VEC2"
    },
    {
      "bufferView": 0,
      "componentType": 5125,
      "count": 2130,
      "type": "SCALAR"
    }
  ],
  "asset": {
    "extras": {
      "author": "Nazzareno Giannelli (https://sketchfab.com/nazzarenogiannelli)",
      "license": "CC-BY-4.0 (http://creativecommons.org/licenses/by/4.0/)",
      "source": "https://sketchfab.com/3d-models/exterior-shower-9fb41b0953f84e778c8fef65e01b93c2",
      "title": "Exterior Shower"
    },
    "generator": "Sketchfab-12.68.0",
    "version": "2.0"
  },
  "bufferViews": [
    {
      "buffer": 0,
      "byteLength": 8520,
      "name": "floatBufferViews",
      "target": 34963
    },
    {
      "buffer": 0,
      "byteLength": 26640,
      "byteOffset": 8520,
      "byteStride": 8,
      "name": "floatBufferViews",
      "target": 34962
    },
    {
      "buffer": 0,
      "byteLength": 15984,
      "byteOffset": 35160,
      "byteStride": 12,
      "name": "floatBufferViews",
      "target": 34962
    },
    {
      "buffer": 0,
      "byteLength": 10656,
      "byteOffset": 51144,
      "byteStride": 16,
      "name": "floatBufferViews",
      "target": 34962
    }
  ],
  "buffers": [
    {
      "byteLength": 61800,
      "uri": "scene.bin"
    }
  ],
  "images": [
    {
      "uri": "textures/DefaultMaterial_baseColor.png"
    },
    {
      "uri": "textures/DefaultMaterial_metallicRoughness.png"
    },
    {
      "uri": "textures/DefaultMaterial_normal.png"
    }
  ],
  "materials": [
    {
      "name": "DefaultMaterial",
      "normalTexture": {
        "index": 2
      },
      "occlusionTexture": {
        "index": 1
      },
      "pbrMetallicRoughness": {
        "baseColorTexture": {
          "index": 0
        },
        "metallicRoughnessTexture": {
          "index": 1
        }
      }
    }
  ],
  "meshes": [
    {
      "name": "Object_0",
      "primitives": [
        {
          "attributes": {
            "NORMAL": 1,
            "POSITION": 0,
            "TANGENT": 2,
            "TEXCOORD_0": 3,
            "TEXCOORD_1": 4,
            "TEXCOORD_2": 5,
            "TEXCOORD_3": 6,
            "TEXCOORD_4": 7
          },
          "indices": 8,
          "material": 0,
          "mode": 4
        }
      ]
    }
  ],
  "nodes": [
    {
      "children": [
        1
      ],
      "matrix": [
        1.0,
        0.0,
        0.0,
        0.0,
        0.0,
        2.220446049250313e-16,
        -1.0,
        0.0,
        0.0,
        1.0,
        2.220446049250313e-16,
        0.0,
        0.0,
        0.0,
        0.0,
        1.0
      ],
      "name": "Sketchfab_model"
    },
    {
      "children": [
        2
      ],
      "name": "root"
    },
    {
      "children": [
        3
      ],
      "matrix": [
        1.0,
        0.0,
        0.0,
        0.0,
        0.0,
        2.220446049250313e-16,
        1.0,
        0.0,
        0.0,
        -1.0,
        2.220446049250313e-16,
        0.0,
        0.0,
        0.0,
        0.0,
        1.0
      ],
      "name": "GLTF_SceneRootNode"
    },
    {
      "children": [
        4
      ],
      "matrix": [
        122.02188873291016,
        0.0,
        0.0,
        0.0,
        0.0,
        122.02188873291016,
        0.0,
        0.0,
        0.0,
        0.0,
        122.02188873291016,
        0.0,
        1.6202468872070313,
        122.02188873291016,
        53.87945556640625,
        1.0
      ],
      "name": "root_0"
    },
    {
      "children": [
        5
      ],
      "name": "Exterior shower_1"
    },
    {
      "children": [
        6
      ],
      "name": "Exterior shower_2"
    },
    {
      "mesh": 0,
      "name": "Object_6"
    }
  ],
  "samplers": [
    {
      "magFilter": 9729,
      "minFilter": 9987,
      "wrapS": 10497,
      "wrapT": 10497
    }
  ],
  "scene": 0,
  "scenes": [
    {
      "name": "Sketchfab_Scene",
      "nodes": [
        0
      ]
    }
  ],
  "textures": [
    {
      "sampler": 0,
      "source": 0
    },
    {
      "sampler": 0,
      "source": 1
    },
    {
      "sampler": 0,
      "source": 2
    }
  ]
}
