{
  "accessors": [
    {
      "bufferView": 2,
      "componentType": 5126,
      "count": 382,
      "max": [
        -75.88618469238281,
        6.413801193237305,
        88.5931625366211
      ],
      "min": [
        -77.81004333496094,
        4.041129112243652,
        86.13317108154297
      ],
      "type": "VEC3"
    },
    {
      "bufferView": 2,
      "byteOffset": 4584,
      "componentType": 5126,
      "count": 382,
      "max": [
        0.99994957447052,
        0.9953685402870178,
        0.9940882325172424
      ],
      "min": [
        -0.9999457001686096,
        -0.9955235123634338,
        -0.9942840933799744
      ],
      "type": "VEC3"
    },
    {
      "bufferView": 1,
      "componentType": 5126,
      "count": 382,
      "max": [
        2.7145421504974365,
        2.933856725692749
      ],
      "min": [
        -2.2053918838500977,
        2.1326465606689453
      ],
      "type": "VEC2"
    },
    {
      "bufferView": 1,
      "byteOffset": 3056,
      "componentType": 5126,
      "count": 382,
      "max": [
        2.7145421504974365,
        2.933856725692749
      ],
      "min": [
        -2.2053918838500977,
        2.1326465606689453
      ],
      "type": "VEC2"
    },
    {
      "bufferView": 0,
      "componentType": 5125,
      "count": 1440,
      "type": "SCALAR"
    },
    {
      "bufferView": 2,
      "byteOffset": 9168,
      "componentType": 5126,
      "count": 575,
      "max": [
        -67.1351318359375,
        9.023907661437988,
        88.95478820800781
      ],
      "min": [
        -69.05892944335938,
        1.8677223920822144,
        86.20684051513672
      ],
      "type": "VEC3"
    },
    {
      "bufferView": 2,
      "byteOffset": 16068,
      "componentType": 5126,
      "count": 575,
      "max": [
        0.9999916553497314,
        0.9309614896774292,
        0.9999550580978394
      ],
      "min": [
        -0.9999915361404419,
        -0.9011448621749878,
        -0.9999551177024841
      ],
      "type": "VEC3"
    },
    {
      "bufferView": 1,
      "byteOffset": 6112,
      "componentType": 5126,
      "count": 575,
      "max": [
        -0.680752158164978,
        4.647714614868164
      ],
      "min": [
        -3.8659982681274414,
        3.160369873046875
      ],
      "type": "VEC2"
    },
    {
      "bufferView": 1,
      "byteOffset": 10712,
      "componentType": 5126,
      "count": 575,
      "max": [
        -0.680752158164978,
        4.647714614868164
      ],
      "min": [
        -3.8659982681274414,
        3.160369873046875
      ],
      "type": "VEC2"
    },
    {
      "bufferView": 0,
      "byteOffset": 5760,
      "componentType": 5125,
      "count": 2400,
      "type": "SCALAR"
    },
    {
      "bufferView": 2,
      "byteOffset": 22968,
      "componentType": 5126,
      "count": 176,
      "max": [
        -80.59983825683594,
        6.624160289764404,
        87.96382904052734
      ],
      "min": [
        -82.52365112304688,
        4.267468452453613,
        86.04002380371094
      ],
      "type": "VEC3"
    },
    {
      "bufferView": 2,
      "byteOffset": 25080,
      "componentType": 5126,
      "count": 176,
      "max": [
        0.9986106157302856,
        0.9420982599258423,
        0.9986100196838379
      ],
      "min": [
        -0.9986107349395752,
        -0.9420977234840393,
        -0.9986100792884827
      ],
      "type": "VEC3"
    },
    {
      "bufferView": 1,
      "byteOffset": 15312,
      "componentType": 5126,
      "count": 176,
      "max": [
        1.756070613861084,
        2.560124158859253
      ],
      "min": [
        -1.7858524322509766,
        1.8566036224365234
      ],
      "type": "VEC2"
    },
    {
      "bufferView": 1,
      "byteOffset": 16720,
      "componentType": 5126,
      "count": 176,
      "max": [
        1.756070613861084,
        2.560124158859253
      ],
      "min": [
        -1.7858524322509766,
        1.8566036224365234
      ],
      "type": "VEC2"
    },
    {
      "bufferView": 0,
      "byteOffset": 15360,
      "componentType": 5125,
      "count": 480,
      "type": "SCALAR"
    },
    {
      "bufferView": 2,
      "byteOffset": 27192,
      "componentType": 5126,
      "count": 413,
      "max": [
        -82.79765319824219,
        6.52060079574585,
        88.97447967529297
      ],
      "min": [
        -84.72146606445313,
        4.371028900146484,
        86.61758422851563
      ],
      "type": "VEC3"
    },
    {
      "bufferView": 2,
      "byteOffset": 32148,
      "componentType": 5126,
      "count": 413,
      "max": [
        0.9999999403953552,
        0.9999995231628418,
        0.9999956488609314
      ],
      "min": [
        -0.9999999403953552,
        -0.9999995231628418,
        -0.9999956488609314
      ],
      "type": "VEC3"
    },
    {
      "bufferView": 1,
      "byteOffset": 18128,
      "componentType": 5126,
      "count": 413,
      "max": [
        3.811680316925049,
        3.9583089351654053
      ],
      "min": [
        -2.7707345485687256,
        2.5682287216186523
      ],
      "type": "VEC2"
    },
    {
      "bufferView": 1,
      "byteOffset": 21432,
      "componentType": 5126,
      "count": 413,
      "max": [
        3.811680316925049,
        3.9583089351654053
      ],
      "min": [
        -2.7707345485687256,
        2.5682287216186523
      ],
      "type": "VEC2"
    },
    {
      "bufferView": 0,
      "byteOffset": 17280,
      "componentType": 5125,
      "count": 1440,
      "type": "SCALAR"
    },
    {
      "bufferView": 2,
      "byteOffset": 37104,
      "componentType": 5126,
      "count": 570,
      "max": [
        -65.04585266113281,
        6.989738464355469,
        92.73481750488281
      ],
      "min": [
        -66.96966552734375,
        3.9018912315368652,
        86.54232788085938
      ],
      "type": "VEC3"
    },
    {
      "bufferView": 2,
      "byteOffset": 43944,
      "componentType": 5126,
      "count": 570,
      "max": [
        1.0,
        1.0,
        0.995826005935669
      ],
      "min": [
        -1.0,
        -1.0,
        -0.9959143996238708
      ],
      "type": "VEC3"
    },
    {
      "bufferView": 1,
      "byteOffset": 24736,
      "componentType": 5126,
      "count": 570,
      "max": [
        0.2638040781021118,
        4.438238143920898
      ],
      "min": [
        -3.7004613876342773,
        3.102761745452881
      ],
      "type": "VEC2"
    },
    {
      "bufferView": 1,
      "byteOffset": 29296,
      "componentType": 5126,
      "count": 570,
      "max": [
        0.2638040781021118,
        4.438238143920898
      ],
      "min": [
        -3.7004613876342773,
        3.102761745452881
      ],
      "type": "VEC2"
    },
    {
      "bufferView": 0,
      "byteOffset": 23040,
      "componentType": 5125,
      "count": 2400,
      "type": "SCALAR"
    },
    {
      "bufferView": 2,
      "byteOffset": 50784,
      "componentType": 5126,
      "count": 570,
      "max": [
        -69.27458953857422,
        8.604934692382813,
        90.12431335449219
      ],
      "min": [
        -71.19840240478516,
        2.2866950035095215,
        87.17472076416016
      ],
      "type": "VEC3"
    },
    {
      "bufferView": 2,
      "byteOffset": 57624,
      "componentType": 5126,
      "count": 570,
      "max": [
        1.0,
        0.9962406158447266,
        1.0
      ],
      "min": [
        -1.0,
        -0.9961351156234741,
        -1.0
      ],
      "type": "VEC3"
    },
    {
      "bufferView": 1,
      "byteOffset": 33856,
      "componentType": 5126,
      "count": 570,
      "max": [
        3.545367479324341,
        4.288839340209961
      ],
      "min": [
        -0.27196264266967773,
        -0.3063713312149048
      ],
      "type": "VEC2"
    },
    {
      "bufferView": 1,
      "byteOffset": 38416,
      "componentType": 5126,
      "count": 570,
      "max": [
        3.545367479324341,
        4.288839340209961
      ],
      "min": [
        -0.27196264266967773,
        -0.3063713312149048
      ],
      "type": "VEC2"
    },
    {
      "bufferView": 0,
      "byteOffset": 32640,
      "componentType": 5125,
      "count": 2400,
      "type": "SCALAR"
    },
    {
      "bufferView": 2,
      "byteOffset": 64464,
      "componentType": 5126,
      "count": 372,
      "max": [
        -78.31466674804688,
        6.948883056640625,
        88.75403594970703
      ],
      "min": [
        -80.23846435546875,
        3.942747116088867,
        86.85043334960938
      ],
      "type": "VEC3"
    },
    {
      "bufferView": 2,
      "byteOffset": 68928,
      "componentType": 5126,
      "count": 372,
      "max": [
        0.999926745891571,
        0.9535043239593506,
        0.999805212020874
      ],
      "min": [
        -0.9999266862869263,
        -0.874188244342804,
        -0.9998045563697815
      ],
      "type": "VEC3"
    },
    {
      "bufferView": 1,
      "byteOffset": 42976,
      "componentType": 5126,
      "count": 372,
      "max": [
        1.2642717361450195,
        2.880923271179199
      ],
      "min": [
        -2.05855393409729,
        2.056617259979248
      ],
      "type": "VEC2"
    },
    {
      "bufferView": 1,
      "byteOffset": 45952,
      "componentType": 5126,
      "count": 372,
      "max": [
        1.2642717361450195,
        2.880923271179199
      ],
      "min": [
        -2.05855393409729,
        2.056617259979248
      ],
      "type": "VEC2"
    },
    {
      "bufferView": 0,
      "byteOffset": 42240,
      "componentType": 5125,
      "count": 1440,
      "type": "SCALAR"
    },
    {
      "bufferView": 2,
      "byteOffset": 73392,
      "componentType": 5126,
      "count": 575,
      "max": [
        -62.5294189453125,
        8.969278335571289,
        88.7425537109375
      ],
      "min": [
        -64.45323181152344,
        1.922351360321045,
        85.6008071899414
      ],
      "type": "VEC3"
    },
    {
      "bufferView": 2,
      "byteOffset": 80292,
      "componentType": 5126,
      "count": 575,
      "max": [
        0.9999964237213135,
        0.9029996991157532,
        0.9995235800743103
      ],
      "min": [
        -0.9999963641166687,
        -0.9030148386955261,
        -0.9995235800743103
      ],
      "type": "VEC3"
    },
    {
      "bufferView": 1,
      "byteOffset": 48928,
      "componentType": 5126,
      "count": 575,
      "max": [
        58.30785369873047,
        44.05874252319336
      ],
      "min": [
        48.85127258300781,
        42.85182571411133
      ],
      "type": "VEC2"
    },
    {
      "bufferView": 1,
      "byteOffset": 53528,
      "componentType": 5126,
      "count": 575,
      "max": [
        58.30785369873047,
        44.05874252319336
      ],
      "min": [
        48.85127258300781,
        42.85182571411133
      ],
      "type": "VEC2"
    },
    {
      "bufferView": 0,
      "byteOffset": 48000,
      "componentType": 5125,
      "count": 2400,
      "type": "SCALAR"
    },
    {
      "bufferView": 2,
      "byteOffset": 87192,
      "componentType": 5126,
      "count": 580,
      "max": [
        -73.67729187011719,
        8.443201065063477,
        89.67160034179688
      ],
      "min": [
        -75.60110473632813,
        2.4484291076660156,
        86.72254180908203
      ],
      "type": "VEC3"
    },
    {
      "bufferView": 2,
      "byteOffset": 94152,
      "componentType": 5126,
      "count": 580,
      "max": [
        0.9999661445617676,
        0.9962407946586609,
        0.999820351600647
      ],
      "min": [
        -0.9999663233757019,
        -0.9961351156234741,
        -0.9998202323913574
      ],
      "type": "VEC3"
    },
    {
      "bufferView": 1,
      "byteOffset": 58128,
      "componentType": 5126,
      "count": 580,
      "max": [
        4.433004379272461,
        4.2553606033325195
      ],
      "min": [
        -0.2705067992210388,
        -0.30486541986465454
      ],
      "type": "VEC2"
    },
    {
      "bufferView": 1,
      "byteOffset": 62768,
      "componentType": 5126,
      "count": 580,
      "max": [
        4.433004379272461,
        4.2553606033325195
      ],
      "min": [
        -0.2705067992210388,
        -0.30486541986465454
      ],
      "type": "VEC2"
    },
    {
      "bufferView": 0,
      "byteOffset": 57600,
      "componentType": 5125,
      "count": 2400,
      "type": "SCALAR"
    },
    {
      "bufferView": 2,
      "byteOffset": 101112,
      "componentType": 5126,
      "count": 320,
      "max": [
        -71.47506713867188,
        7.85267448425293,
        92.78013610839844
      ],
      "min": [
        -73.39886474609375,
        3.038954734802246,
        86.87203216552734
      ],
      "type": "VEC3"
    },
    {
      "bufferView": 2,
      "byteOffset": 104952,
      "componentType": 5126,
      "count": 320,
      "max": [
        1.0,
        1.0,
        0.9864349961280823
      ],
      "min": [
        -1.0,
        -1.0,
        -0.9864766597747803
      ],
      "type": "VEC3"
    },
    {
      "bufferView": 1,
      "byteOffset": 67408,
      "componentType": 5126,
      "count": 320,
      "max": [
        0.9720255136489868,
        4.328531265258789
      ],
      "min": [
        -3.628833770751953,
        2.613590955734253
      ],
      "type": "VEC2"
    },
    {
      "bufferView": 1,
      "byteOffset": 69968,
      "componentType": 5126,
      "count": 320,
      "max": [
        0.9720255136489868,
        4.328531265258789
      ],
      "min": [
        -3.628833770751953,
        2.613590955734253
      ],
      "type": "VEC2"
    },
    {
      "bufferView": 0,
      "byteOffset": 67200,
      "componentType": 5125,
      "count": 1440,
      "type": "SCALAR"
    },
    {
      "bufferView": 2,
      "byteOffset": 108792,
      "componentType": 5126,
      "count": 346,
      "max": [
        -60.185150146484375,
        6.770473480224609,
        -1.701873779296875
      ],
      "min": [
        -71.23892211914063,
        -6.770475387573242,
        -20.739227294921875
      ],
      "type": "VEC3"
    },
    {
      "bufferView": 2,
      "byteOffset": 112944,
      "componentType": 5126,
      "count": 346,
      "max": [
        0.9999999403953552,
        0.9999999403953552,
        0.9986096024513245
      ],
      "min": [
        -0.9999999403953552,
        -0.9999999403953552,
        -0.9986096620559692
      ],
      "type": "VEC3"
    },
    {
      "bufferView": 1,
      "byteOffset": 72528,
      "componentType": 5126,
      "count": 346,
      "max": [
        3.5300893783569336,
        3.699117660522461
      ],
      "min": [
        -1.683187484741211,
        2.407095432281494
      ],
      "type": "VEC2"
    },
    {
      "bufferView": 1,
      "byteOffset": 75296,
      "componentType": 5126,
      "count": 346,
      "max": [
        3.5300893783569336,
        3.699117660522461
      ],
      "min": [
        -1.683187484741211,
        2.407095432281494
      ],
      "type": "VEC2"
    },
    {
      "bufferView": 0,
      "byteOffset": 72960,
      "componentType": 5125,
      "count": 960,
      "type": "SCALAR"
    }
  ],
  "asset": {
    "extras": {
      "author": "sam (https://sketchfab.com/pigeons)",
      "license": "CC-BY-4.0 (http://creativecommons.org/licenses/by/4.0/)",
      "source": "https://sketchfab.com/3d-models/modular-pvc-pipes-018fdefcb98f4842ae5451550f803c1b",
      "title": "modular pvc pipes"
    },
    "generator": "Sketchfab-12.59.0",
    "version": "2.0"
  },
  "bufferViews": [
    {
      "buffer": 0,
      "byteLength": 76800,
      "name": "floatBufferViews",
      "target": 34963
    },
    {
      "buffer": 0,
      "byteLength": 78064,
      "byteOffset": 76800,
      "byteStride": 8,
      "name": "floatBufferViews",
      "target": 34962
    },
    {
      "buffer": 0,
      "byteLength": 117096,
      "byteOffset": 154864,
      "byteStride": 12,
      "name": "floatBufferViews",
      "target": 34962
    }
  ],
  "buffers": [
    {
      "byteLength": 271960,
      "uri": "scene.bin"
    }
  ],
  "materials": [
    {
      "doubleSided": true,
      "name": "material",
      "pbrMetallicRoughness": {
        "baseColorFactor": [
          0.3659078721684601,
          0.4199567425704185,
          0.42604616193917755,
          1.0
        ],
        "metallicFactor": 0.5976069878023569,
        "roughnessFactor": 0.9739675175424729
      }
    }
  ],
  "meshes": [
    {
      "name": "pipes_0001:pasted__pCylinder7_pvc_0",
      "primitives": [
        {
          "attributes": {
            "NORMAL": 1,
            "POSITION": 0,
            "TEXCOORD_0": 2,
            "TEXCOORD_1": 3
          },
          "indices": 4,
          "material": 0,
          "mode": 4
        }
      ]
    },
    {
      "name": "pipes_0001:pasted__pCylinder10_pvc_0",
      "primitives": [
        {
          "attributes": {
            "NORMAL": 6,
            "POSITION": 5,
            "TEXCOORD_0": 7,
            "TEXCOORD_1": 8
          },
          "indices": 9,
          "material": 0,
          "mode": 4
        }
      ]
    },
    {
      "name": "pipes_0001:pCylinder1_pvc_0",
      "primitives": [
        {
          "attributes": {
            "NORMAL": 11,
            "POSITION": 10,
            "TEXCOORD_0": 12,
            "TEXCOORD_1": 13
          },
          "indices": 14,
          "material": 0,
          "mode": 4
        }
      ]
    },
    {
      "name": "pipes_0001:pCylinder18_pvc_0",
      "primitives": [
        {
          "attributes": {
            "NORMAL": 16,
            "POSITION": 15,
            "TEXCOORD_0": 17,
            "TEXCOORD_1": 18
          },
          "indices": 19,
          "material": 0,
          "mode": 4
        }
      ]
    },
    {
      "name": "pipes_0001:pasted__pCylinder12_pvc_0",
      "primitives": [
        {
          "attributes": {
            "NORMAL": 21,
            "POSITION": 20,
            "TEXCOORD_0": 22,
            "TEXCOORD_1": 23
          },
          "indices": 24,
          "material": 0,
          "mode": 4
        }
      ]
    },
    {
      "name": "pipes_0001:pasted__pCylinder11_pvc_0",
      "primitives": [
        {
          "attributes": {
            "NORMAL": 26,
            "POSITION": 25,
            "TEXCOORD_0": 27,
            "TEXCOORD_1": 28
          },
          "indices": 29,
          "material": 0,
          "mode": 4
        }
      ]
    },
    {
      "name": "pipes_0001:pasted__pCylinder6_pvc_0",
      "primitives": [
        {
          "attributes": {
            "NORMAL": 31,
            "POSITION": 30,
            "TEXCOORD_0": 32,
            "TEXCOORD_1": 33
          },
          "indices": 34,
          "material": 0,
          "mode": 4
        }
      ]
    },
    {
      "name": "pipes_0001:pasted__pCylinder13_pvc_0",
      "primitives": [
        {
          "attributes": {
            "NORMAL": 36,
            "POSITION": 35,
            "TEXCOORD_0": 37,
            "TEXCOORD_1": 38
          },
          "indices": 39,
          "material": 0,
          "mode": 4
        }
      ]
    },
    {
      "name": "pipes_0001:pCylinder9_pvc_0",
      "primitives": [
        {
          "attributes": {
            "NORMAL": 41,
            "POSITION": 40,
            "TEXCOORD_0": 42,
            "TEXCOORD_1": 43
          },
          "indices": 44,
          "material": 0,
          "mode": 4
        }
      ]
    },
    {
      "name": "pipes_0001:pCylinder19_pvc_0",
      "primitives": [
        {
          "attributes": {
            "NORMAL": 46,
            "POSITION": 45,
            "TEXCOORD_0": 47,
            "TEXCOORD_1": 48
          },
          "indices": 49,
          "material": 0,
          "mode": 4
        }
      ]
    },
    {
      "name": "polySurface1_pvc_0",
      "primitives": [
        {
          "attributes": {
            "NORMAL": 51,
            "POSITION": 50,
            "TEXCOORD_0": 52,
            "TEXCOORD_1": 53
          },
          "indices": 54,
          "material": 0,
          "mode": 4
        }
      ]
    }
  ],
  "nodes": [
    {
      "children": [
        1
      ],
      "matrix": [
        1.0,
        0.0,
        0.0,
        0.0,
        0.0,
        2.220446049250313e-16,
        -1.0,
        0.0,
        0.0,
        1.0,
        2.220446049250313e-16,
        0.0,
        0.0,
        0.0,
        0.0,
        1.0
      ],
      "name": "Sketchfab_model"
    },
    {
      "children": [
        2
      ],
      "matrix": [
        0.009999999776482582,
        0.0,
        0.0,
        0.0,
        0.0,
        0.0,
        0.009999999776482582,
        0.0,
        0.0,
        -0.009999999776482582,
        0.0,
        0.0,
        0.0,
        0.0,
        0.0,
        1.0
      ],
      "name": "b2d6c8d9a4214d458c26e2c7abd82239.fbx"
    },
    {
      "children": [
        3,
        26
      ],
      "name": "RootNode"
    },
    {
      "children": [
        4
      ],
      "matrix": [
        5.745748519897461,
        0.0,
        0.0,
        0.0,
        0.0,
        5.745748519897461,
        0.0,
        0.0,
        0.0,
        0.0,
        5.745748519897461,
        0.0,
        430.5172424316406,
        -31.290283203125,
        -512.3521118164063,
        1.0
      ],
      "name": "group3"
    },
    {
      "children": [
        5
      ],
      "name": "group4"
    },
    {
      "children": [
        6,
        8,
        10,
        12,
        14,
        16,
        18,
        20,
        22,
        24
      ],
      "name": "group5"
    },
    {
      "children": [
        7
      ],
      "matrix": [
        1.0,
        0.0,
        0.0,
        0.0,
        0.0,
        1.0,
        0.0,
        0.0,
        0.0,
        0.0,
        1.0,
        0.0,
        1.4210854715202004e-14,
        0.0,
        0.0,
        1.0
      ],
      "name": "pipes_0001:pasted__pCylinder7"
    },
    {
      "mesh": 0,
      "name": "pipes_0001:pasted__pCylinder7_pvc_0"
    },
    {
      "children": [
        9
      ],
      "matrix": [
        1.0,
        0.0,
        0.0,
        0.0,
        0.0,
        1.0,
        0.0,
        0.0,
        0.0,
        0.0,
        1.0,
        0.0,
        1.4210854715202004e-14,
        0.0,
        0.0,
        1.0
      ],
      "name": "pipes_0001:pasted__pCylinder10"
    },
    {
      "mesh": 1,
      "name": "pipes_0001:pasted__pCylinder10_pvc_0"
    },
    {
      "children": [
        11
      ],
      "matrix": [
        1.0,
        0.0,
        0.0,
        0.0,
        0.0,
        1.0,
        0.0,
        0.0,
        0.0,
        0.0,
        1.0,
        0.0,
        1.4210854715202004e-14,
        0.0,
        0.0,
        1.0
      ],
      "name": "pipes_0001:pCylinder1"
    },
    {
      "mesh": 2,
      "name": "pipes_0001:pCylinder1_pvc_0"
    },
    {
      "children": [
        13
      ],
      "matrix": [
        1.0,
        0.0,
        0.0,
        0.0,
        0.0,
        1.0,
        0.0,
        0.0,
        0.0,
        0.0,
        1.0,
        0.0,
        1.4210854715202004e-14,
        0.0,
        0.0,
        1.0
      ],
      "name": "pipes_0001:pCylinder18"
    },
    {
      "mesh": 3,
      "name": "pipes_0001:pCylinder18_pvc_0"
    },
    {
      "children": [
        15
      ],
      "matrix": [
        1.0,
        0.0,
        0.0,
        0.0,
        0.0,
        1.0,
        0.0,
        0.0,
        0.0,
        0.0,
        1.0,
        0.0,
        1.4210854715202004e-14,
        0.0,
        0.0,
        1.0
      ],
      "name": "pipes_0001:pasted__pCylinder12"
    },
    {
      "mesh": 4,
      "name": "pipes_0001:pasted__pCylinder12_pvc_0"
    },
    {
      "children": [
        17
      ],
      "matrix": [
        1.0,
        0.0,
        0.0,
        0.0,
        0.0,
        1.0,
        0.0,
        0.0,
        0.0,
        0.0,
        1.0,
        0.0,
        1.4210854715202004e-14,
        0.0,
        0.0,
        1.0
      ],
      "name": "pipes_0001:pasted__pCylinder11"
    },
    {
      "mesh": 5,
      "name": "pipes_0001:pasted__pCylinder11_pvc_0"
    },
    {
      "children": [
        19
      ],
      "matrix": [
        1.0,
        0.0,
        0.0,
        0.0,
        0.0,
        1.0,
        0.0,
        0.0,
        0.0,
        0.0,
        1.0,
        0.0,
        1.4210854715202004e-14,
        0.0,
        0.0,
        1.0
      ],
      "name": "pipes_0001:pasted__pCylinder6"
    },
    {
      "mesh": 6,
      "name": "pipes_0001:pasted__pCylinder6_pvc_0"
    },
    {
      "children": [
        21
      ],
      "matrix": [
        1.0,
        0.0,
        0.0,
        0.0,
        0.0,
        1.0,
        0.0,
        0.0,
        0.0,
        0.0,
        1.0,
        0.0,
        1.4210854715202004e-14,
        0.0,
        0.0,
        1.0
      ],
      "name": "pipes_0001:pasted__pCylinder13"
    },
    {
      "mesh": 7,
      "name": "pipes_0001:pasted__pCylinder13_pvc_0"
    },
    {
      "children": [
        23
      ],
      "matrix": [
        1.0,
        0.0,
        0.0,
        0.0,
        0.0,
        1.0,
        0.0,
        0.0,
        0.0,
        0.0,
        1.0,
        0.0,
        1.4210854715202004e-14,
        0.0,
        0.0,
        1.0
      ],
      "name": "pipes_0001:pCylinder9"
    },
    {
      "mesh": 8,
      "name": "pipes_0001:pCylinder9_pvc_0"
    },
    {
      "children": [
        25
      ],
      "matrix": [
        1.0,
        0.0,
        0.0,
        0.0,
        0.0,
        1.0,
        0.0,
        0.0,
        0.0,
        0.0,
        1.0,
        0.0,
        1.4210854715202004e-14,
        0.0,
        0.0,
        1.0
      ],
      "name": "pipes_0001:pCylinder19"
    },
    {
      "mesh": 9,
      "name": "pipes_0001:pCylinder19_pvc_0"
    },
    {
      "children": [
        27
      ],
      "name": "polySurface1"
    },
    {
      "mesh": 10,
      "name": "polySurface1_pvc_0"
    }
  ],
  "scene": 0,
  "scenes": [
    {
      "name": "Sketchfab_Scene",
      "nodes": [
        0
      ]
    }
  ]
}
