{
  "accessors": [
    {
      "bufferView": 2,
      "componentType": 5126,
      "count": 252,
      "max": [
        0.06236527860164642,
        0.2046634554862976,
        0.16279061138629913
      ],
      "min": [
        -0.09328293800354004,
        -0.2046634554862976,
        -0.16279032826423645
      ],
      "type": "VEC3"
    },
    {
      "bufferView": 2,
      "byteOffset": 3024,
      "componentType": 5126,
      "count": 252,
      "max": [
        1.0,
        1.0,
        1.0
      ],
      "min": [
        -1.0,
        -1.0,
        -1.0
      ],
      "type": "VEC3"
    },
    {
      "bufferView": 3,
      "componentType": 5126,
      "count": 252,
      "max": [
        1.0,
        0.9999932646751404,
        1.0,
        1.0
      ],
      "min": [
        -1.0,
        -0.9999924302101135,
        -1.0,
        1.0
      ],
      "type": "VEC4"
    },
    {
      "bufferView": 1,
      "componentType": 5126,
      "count": 252,
      "max": [
        0.9563235640525818,
        0.9706915020942688
      ],
      "min": [
        0.005254787392914295,
        0.005254040472209454
      ],
      "type": "VEC2"
    },
    {
      "bufferView": 1,
      "byteOffset": 2016,
      "componentType": 5126,
      "count": 252,
      "max": [
        0.9563235640525818,
        0.9706915020942688
      ],
      "min": [
        0.005254787392914295,
        0.005254040472209454
      ],
      "type": "VEC2"
    },
    {
      "bufferView": 1,
      "byteOffset": 4032,
      "componentType": 5126,
      "count": 252,
      "max": [
        0.9563235640525818,
        0.9706915020942688
      ],
      "min": [
        0.005254787392914295,
        0.005254040472209454
      ],
      "type": "VEC2"
    },
    {
      "bufferView": 1,
      "byteOffset": 6048,
      "componentType": 5126,
      "count": 252,
      "max": [
        0.9563235640525818,
        0.9706915020942688
      ],
      "min": [
        0.005254787392914295,
        0.005254040472209454
      ],
      "type": "VEC2"
    },
    {
      "bufferView": 0,
      "componentType": 5125,
      "count": 468,
      "type": "SCALAR"
    },
    {
      "bufferView": 2,
      "byteOffset": 6048,
      "componentType": 5126,
      "count": 862,
      "max": [
        0.023457761853933334,
        0.20154215395450592,
        0.31933748722076416
      ],
      "min": [
        -0.007252059411257505,
        -0.20154313743114471,
        -0.002740219235420227
      ],
      "type": "VEC3"
    },
    {
      "bufferView": 2,
      "byteOffset": 16392,
      "componentType": 5126,
      "count": 862,
      "max": [
        1.0,
        1.0,
        1.0
      ],
      "min": [
        -1.0,
        -1.0,
        -1.0
      ],
      "type": "VEC3"
    },
    {
      "bufferView": 3,
      "byteOffset": 4032,
      "componentType": 5126,
      "count": 862,
      "max": [
        1.0,
        1.0,
        1.0,
        1.0
      ],
      "min": [
        -1.0,
        -0.9999996423721313,
        -1.0,
        1.0
      ],
      "type": "VEC4"
    },
    {
      "bufferView": 1,
      "byteOffset": 8064,
      "componentType": 5126,
      "count": 862,
      "max": [
        0.9945027232170105,
        0.9873754978179932
      ],
      "min": [
        0.005249951500445604,
        0.005258908960968256
      ],
      "type": "VEC2"
    },
    {
      "bufferView": 1,
      "byteOffset": 14960,
      "componentType": 5126,
      "count": 862,
      "max": [
        0.9945027232170105,
        0.9873754978179932
      ],
      "min": [
        0.005249951500445604,
        0.005258908960968256
      ],
      "type": "VEC2"
    },
    {
      "bufferView": 1,
      "byteOffset": 21856,
      "componentType": 5126,
      "count": 862,
      "max": [
        0.9945027232170105,
        0.9873754978179932
      ],
      "min": [
        0.005249951500445604,
        0.005258908960968256
      ],
      "type": "VEC2"
    },
    {
      "bufferView": 1,
      "byteOffset": 28752,
      "componentType": 5126,
      "count": 862,
      "max": [
        0.9945027232170105,
        0.9873754978179932
      ],
      "min": [
        0.005249951500445604,
        0.005258908960968256
      ],
      "type": "VEC2"
    },
    {
      "bufferView": 0,
      "byteOffset": 1872,
      "componentType": 5125,
      "count": 3708,
      "type": "SCALAR"
    },
    {
      "bufferView": 2,
      "byteOffset": 26736,
      "componentType": 5126,
      "count": 4,
      "max": [
        -0.0025917585007846355,
        0.13364450633525848,
        0.2550721764564514
      ],
      "min": [
        -0.002591766882687807,
        -0.13364548981189728,
        0.06634621322154999
      ],
      "type": "VEC3"
    },
    {
      "bufferView": 2,
      "byteOffset": 26784,
      "componentType": 5126,
      "count": 4,
      "max": [
        1.0,
        -2.2008774705863706e-15,
        4.615574589195148e-09
      ],
      "min": [
        1.0,
        -2.2008774705863706e-15,
        4.615574589195148e-09
      ],
      "type": "VEC3"
    },
    {
      "bufferView": 3,
      "byteOffset": 17824,
      "componentType": 5126,
      "count": 4,
      "max": [
        4.615575477373568e-09,
        8.758944773899804e-23,
        -1.0,
        1.0
      ],
      "min": [
        4.615575477373568e-09,
        -8.618435393816734e-23,
        -1.0,
        1.0
      ],
      "type": "VEC4"
    },
    {
      "bufferView": 1,
      "byteOffset": 35648,
      "componentType": 5126,
      "count": 4,
      "max": [
        0.4878440797328949,
        0.276645302772522
      ],
      "min": [
        0.3472118377685547,
        0.0774698480963707
      ],
      "type": "VEC2"
    },
    {
      "bufferView": 1,
      "byteOffset": 35680,
      "componentType": 5126,
      "count": 4,
      "max": [
        0.4878440797328949,
        0.276645302772522
      ],
      "min": [
        0.3472118377685547,
        0.0774698480963707
      ],
      "type": "VEC2"
    },
    {
      "bufferView": 1,
      "byteOffset": 35712,
      "componentType": 5126,
      "count": 4,
      "max": [
        0.4878440797328949,
        0.276645302772522
      ],
      "min": [
        0.3472118377685547,
        0.0774698480963707
      ],
      "type": "VEC2"
    },
    {
      "bufferView": 1,
      "byteOffset": 35744,
      "componentType": 5126,
      "count": 4,
      "max": [
        0.4878440797328949,
        0.276645302772522
      ],
      "min": [
        0.3472118377685547,
        0.0774698480963707
      ],
      "type": "VEC2"
    },
    {
      "bufferView": 0,
      "byteOffset": 16704,
      "componentType": 5125,
      "count": 6,
      "type": "SCALAR"
    },
    {
      "bufferView": 2,
      "byteOffset": 26832,
      "componentType": 5126,
      "count": 468,
      "max": [
        0.010932945646345615,
        0.14024798572063446,
        0.11291537433862686
      ],
      "min": [
        -0.01832842081785202,
        -0.14121176302433014,
        -0.11291537433862686
      ],
      "type": "VEC3"
    },
    {
      "bufferView": 2,
      "byteOffset": 32448,
      "componentType": 5126,
      "count": 468,
      "max": [
        1.0,
        1.0,
        1.0
      ],
      "min": [
        -1.0,
        -1.0,
        -1.0
      ],
      "type": "VEC3"
    },
    {
      "bufferView": 3,
      "byteOffset": 17888,
      "componentType": 5126,
      "count": 468,
      "max": [
        0.9999987483024597,
        1.0,
        1.0,
        1.0
      ],
      "min": [
        -0.9999982118606567,
        -0.5299948453903198,
        -1.0,
        -1.0
      ],
      "type": "VEC4"
    },
    {
      "bufferView": 1,
      "byteOffset": 35776,
      "componentType": 5126,
      "count": 468,
      "max": [
        0.9752489924430847,
        0.8972648978233337
      ],
      "min": [
        0.3856489360332489,
        0.005289698019623756
      ],
      "type": "VEC2"
    },
    {
      "bufferView": 1,
      "byteOffset": 39520,
      "componentType": 5126,
      "count": 468,
      "max": [
        0.9752489924430847,
        0.8972648978233337
      ],
      "min": [
        0.3856489360332489,
        0.005289698019623756
      ],
      "type": "VEC2"
    },
    {
      "bufferView": 1,
      "byteOffset": 43264,
      "componentType": 5126,
      "count": 468,
      "max": [
        0.9752489924430847,
        0.8972648978233337
      ],
      "min": [
        0.3856489360332489,
        0.005289698019623756
      ],
      "type": "VEC2"
    },
    {
      "bufferView": 1,
      "byteOffset": 47008,
      "componentType": 5126,
      "count": 468,
      "max": [
        0.9752489924430847,
        0.8972648978233337
      ],
      "min": [
        0.3856489360332489,
        0.005289698019623756
      ],
      "type": "VEC2"
    },
    {
      "bufferView": 0,
      "byteOffset": 16728,
      "componentType": 5125,
      "count": 1248,
      "type": "SCALAR"
    },
    {
      "bufferView": 2,
      "byteOffset": 38064,
      "componentType": 5126,
      "count": 80,
      "max": [
        0.04530398175120354,
        0.06306499987840652,
        0.1576308161020279
      ],
      "min": [
        -0.08829975873231888,
        0.05114000290632248,
        -0.1576308161020279
      ],
      "type": "VEC3"
    },
    {
      "bufferView": 2,
      "byteOffset": 39024,
      "componentType": 5126,
      "count": 80,
      "max": [
        0.9999945163726807,
        0.9999995827674866,
        0.9999691843986511
      ],
      "min": [
        -0.9999944567680359,
        -1.0,
        -0.9999691843986511
      ],
      "type": "VEC3"
    },
    {
      "bufferView": 3,
      "byteOffset": 25376,
      "componentType": 5126,
      "count": 80,
      "max": [
        0.9999955892562866,
        1.0,
        1.0,
        1.0
      ],
      "min": [
        -0.9999998211860657,
        -0.9999966621398926,
        -0.9999819993972778,
        1.0
      ],
      "type": "VEC4"
    },
    {
      "bufferView": 1,
      "byteOffset": 50752,
      "componentType": 5126,
      "count": 80,
      "max": [
        0.9947449564933777,
        0.9719094038009644
      ],
      "min": [
        0.28305649757385254,
        0.0052537680603563786
      ],
      "type": "VEC2"
    },
    {
      "bufferView": 1,
      "byteOffset": 51392,
      "componentType": 5126,
      "count": 80,
      "max": [
        0.9947449564933777,
        0.9719094038009644
      ],
      "min": [
        0.28305649757385254,
        0.0052537680603563786
      ],
      "type": "VEC2"
    },
    {
      "bufferView": 1,
      "byteOffset": 52032,
      "componentType": 5126,
      "count": 80,
      "max": [
        0.9947449564933777,
        0.9719094038009644
      ],
      "min": [
        0.28305649757385254,
        0.0052537680603563786
      ],
      "type": "VEC2"
    },
    {
      "bufferView": 1,
      "byteOffset": 52672,
      "componentType": 5126,
      "count": 80,
      "max": [
        0.9947449564933777,
        0.9719094038009644
      ],
      "min": [
        0.28305649757385254,
        0.0052537680603563786
      ],
      "type": "VEC2"
    },
    {
      "bufferView": 0,
      "byteOffset": 21720,
      "componentType": 5125,
      "count": 228,
      "type": "SCALAR"
    },
    {
      "bufferView": 2,
      "byteOffset": 39984,
      "componentType": 5126,
      "count": 1920,
      "max": [
        0.09807062149047852,
        0.11084946990013123,
        0.12817731499671936
      ],
      "min": [
        -0.09807062149047852,
        -0.11084946990013123,
        -0.12817731499671936
      ],
      "type": "VEC3"
    },
    {
      "bufferView": 2,
      "byteOffset": 63024,
      "componentType": 5126,
      "count": 1920,
      "max": [
        1.0,
        1.0,
        1.0
      ],
      "min": [
        -1.0,
        -1.0,
        -1.0
      ],
      "type": "VEC3"
    },
    {
      "bufferView": 3,
      "byteOffset": 26656,
      "componentType": 5126,
      "count": 1920,
      "max": [
        1.0,
        0.9996207356452942,
        1.0,
        1.0
      ],
      "min": [
        -1.0,
        -1.0,
        -1.0,
        1.0
      ],
      "type": "VEC4"
    },
    {
      "bufferView": 1,
      "byteOffset": 53312,
      "componentType": 5126,
      "count": 1920,
      "max": [
        0.9948938488960266,
        0.9934700727462769
      ],
      "min": [
        0.004696803633123636,
        0.004695301875472069
      ],
      "type": "VEC2"
    },
    {
      "bufferView": 1,
      "byteOffset": 68672,
      "componentType": 5126,
      "count": 1920,
      "max": [
        0.9948938488960266,
        0.9934700727462769
      ],
      "min": [
        0.004696803633123636,
        0.004695301875472069
      ],
      "type": "VEC2"
    },
    {
      "bufferView": 1,
      "byteOffset": 84032,
      "componentType": 5126,
      "count": 1920,
      "max": [
        0.9948938488960266,
        0.9934700727462769
      ],
      "min": [
        0.004696803633123636,
        0.004695301875472069
      ],
      "type": "VEC2"
    },
    {
      "bufferView": 1,
      "byteOffset": 99392,
      "componentType": 5126,
      "count": 1920,
      "max": [
        0.9948938488960266,
        0.9934700727462769
      ],
      "min": [
        0.004696803633123636,
        0.004695301875472069
      ],
      "type": "VEC2"
    },
    {
      "bufferView": 0,
      "byteOffset": 22632,
      "componentType": 5125,
      "count": 7764,
      "type": "SCALAR"
    },
    {
      "bufferView": 2,
      "byteOffset": 86064,
      "componentType": 5126,
      "count": 1020,
      "max": [
        0.16563186049461365,
        0.2934747040271759,
        0.24529987573623657
      ],
      "min": [
        -0.16611304879188538,
        -0.010492450557649136,
        -0.24529987573623657
      ],
      "type": "VEC3"
    },
    {
      "bufferView": 2,
      "byteOffset": 98304,
      "componentType": 5126,
      "count": 1020,
      "max": [
        0.9999330639839172,
        0.9999974966049194,
        0.9997594952583313
      ],
      "min": [
        -0.9999332427978516,
        -0.9999988079071045,
        -0.9997594952583313
      ],
      "type": "VEC3"
    },
    {
      "bufferView": 3,
      "byteOffset": 57376,
      "componentType": 5126,
      "count": 1020,
      "max": [
        0.9983805418014526,
        0.9982600808143616,
        1.0,
        1.0
      ],
      "min": [
        -0.9880363345146179,
        -0.9999884366989136,
        -0.9999992847442627,
        1.0
      ],
      "type": "VEC4"
    },
    {
      "bufferView": 1,
      "byteOffset": 114752,
      "componentType": 5126,
      "count": 1020,
      "max": [
        0.8381375670433044,
        0.9034789800643921
      ],
      "min": [
        0.005418192595243454,
        0.005448884330689907
      ],
      "type": "VEC2"
    },
    {
      "bufferView": 1,
      "byteOffset": 122912,
      "componentType": 5126,
      "count": 1020,
      "max": [
        0.8381375670433044,
        0.9034789800643921
      ],
      "min": [
        0.005418192595243454,
        0.005448884330689907
      ],
      "type": "VEC2"
    },
    {
      "bufferView": 1,
      "byteOffset": 131072,
      "componentType": 5126,
      "count": 1020,
      "max": [
        0.8381375670433044,
        0.9034789800643921
      ],
      "min": [
        0.005418192595243454,
        0.005448884330689907
      ],
      "type": "VEC2"
    },
    {
      "bufferView": 1,
      "byteOffset": 139232,
      "componentType": 5126,
      "count": 1020,
      "max": [
        0.8381375670433044,
        0.9034789800643921
      ],
      "min": [
        0.005418192595243454,
        0.005448884330689907
      ],
      "type": "VEC2"
    },
    {
      "bufferView": 0,
      "byteOffset": 53688,
      "componentType": 5125,
      "count": 5532,
      "type": "SCALAR"
    },
    {
      "bufferView": 2,
      "byteOffset": 110544,
      "componentType": 5126,
      "count": 2130,
      "max": [
        0.09029210358858109,
        0.06388726830482483,
        0.022664278745651245
      ],
      "min": [
        -0.09029210358858109,
        -0.0515308752655983,
        -0.045140158385038376
      ],
      "type": "VEC3"
    },
    {
      "bufferView": 2,
      "byteOffset": 136104,
      "componentType": 5126,
      "count": 2130,
      "max": [
        1.0,
        1.0,
        1.0
      ],
      "min": [
        -1.0,
        -1.0,
        -1.0
      ],
      "type": "VEC3"
    },
    {
      "bufferView": 3,
      "byteOffset": 73696,
      "componentType": 5126,
      "count": 2130,
      "max": [
        0.9941868185997009,
        1.0,
        0.9937092065811157,
        1.0
      ],
      "min": [
        -1.0,
        -1.0,
        -1.0,
        -1.0
      ],
      "type": "VEC4"
    },
    {
      "bufferView": 1,
      "byteOffset": 147392,
      "componentType": 5126,
      "count": 2130,
      "max": [
        0.9934736490249634,
        0.9923638701438904
      ],
      "min": [
        0.005418151617050171,
        0.12489549815654755
      ],
      "type": "VEC2"
    },
    {
      "bufferView": 1,
      "byteOffset": 164432,
      "componentType": 5126,
      "count": 2130,
      "max": [
        0.9934736490249634,
        0.9923638701438904
      ],
      "min": [
        0.005418151617050171,
        0.12489549815654755
      ],
      "type": "VEC2"
    },
    {
      "bufferView": 1,
      "byteOffset": 181472,
      "componentType": 5126,
      "count": 2130,
      "max": [
        0.9934736490249634,
        0.9923638701438904
      ],
      "min": [
        0.005418151617050171,
        0.12489549815654755
      ],
      "type": "VEC2"
    },
    {
      "bufferView": 1,
      "byteOffset": 198512,
      "componentType": 5126,
      "count": 2130,
      "max": [
        0.9934736490249634,
        0.9923638701438904
      ],
      "min": [
        0.005418151617050171,
        0.12489549815654755
      ],
      "type": "VEC2"
    },
    {
      "bufferView": 0,
      "byteOffset": 75816,
      "componentType": 5125,
      "count": 10134,
      "type": "SCALAR"
    },
    {
      "bufferView": 2,
      "byteOffset": 161664,
      "componentType": 5126,
      "count": 464,
      "max": [
        0.014567427337169647,
        0.13647443056106567,
        0.0018072137609124184
      ],
      "min": [
        -0.014803938567638397,
        -0.014912396669387817,
        -0.04129466414451599
      ],
      "type": "VEC3"
    },
    {
      "bufferView": 2,
      "byteOffset": 167232,
      "componentType": 5126,
      "count": 464,
      "max": [
        1.0,
        1.0,
        1.0
      ],
      "min": [
        -1.0,
        -1.0,
        -1.0
      ],
      "type": "VEC3"
    },
    {
      "bufferView": 3,
      "byteOffset": 107776,
      "componentType": 5126,
      "count": 464,
      "max": [
        0.9999793171882629,
        0.9998721480369568,
        0.9999312162399292,
        1.0
      ],
      "min": [
        -0.9992799162864685,
        -0.97633957862854,
        -0.9993598461151123,
        1.0
      ],
      "type": "VEC4"
    },
    {
      "bufferView": 1,
      "byteOffset": 215552,
      "componentType": 5126,
      "count": 464,
      "max": [
        0.9543158411979675,
        0.9487111568450928
      ],
      "min": [
        0.16548973321914673,
        0.7509547472000122
      ],
      "type": "VEC2"
    },
    {
      "bufferView": 1,
      "byteOffset": 219264,
      "componentType": 5126,
      "count": 464,
      "max": [
        0.9543158411979675,
        0.9487111568450928
      ],
      "min": [
        0.16548973321914673,
        0.7509547472000122
      ],
      "type": "VEC2"
    },
    {
      "bufferView": 1,
      "byteOffset": 222976,
      "componentType": 5126,
      "count": 464,
      "max": [
        0.9543158411979675,
        0.9487111568450928
      ],
      "min": [
        0.16548973321914673,
        0.7509547472000122
      ],
      "type": "VEC2"
    },
    {
      "bufferView": 1,
      "byteOffset": 226688,
      "componentType": 5126,
      "count": 464,
      "max": [
        0.9543158411979675,
        0.9487111568450928
      ],
      "min": [
        0.16548973321914673,
        0.7509547472000122
      ],
      "type": "VEC2"
    },
    {
      "bufferView": 0,
      "byteOffset": 116352,
      "componentType": 5125,
      "count": 2190,
      "type": "SCALAR"
    },
    {
      "bufferView": 2,
      "byteOffset": 172800,
      "componentType": 5126,
      "count": 705,
      "max": [
        0.03430939465761185,
        0.0026801263447850943,
        0.03430939465761185
      ],
      "min": [
        -0.03430939093232155,
        0.0001921383081935346,
        -0.03430938720703125
      ],
      "type": "VEC3"
    },
    {
      "bufferView": 2,
      "byteOffset": 181260,
      "componentType": 5126,
      "count": 705,
      "max": [
        1.0,
        1.0,
        1.0
      ],
      "min": [
        -1.0,
        0.0,
        -1.0
      ],
      "type": "VEC3"
    },
    {
      "bufferView": 3,
      "byteOffset": 115200,
      "componentType": 5126,
      "count": 705,
      "max": [
        0.3316377103328705,
        0.9999790191650391,
        0.9552454352378845,
        1.0
      ],
      "min": [
        -0.9964886903762817,
        -0.9999529123306274,
        -0.5066365003585815,
        1.0
      ],
      "type": "VEC4"
    },
    {
      "bufferView": 1,
      "byteOffset": 230400,
      "componentType": 5126,
      "count": 705,
      "max": [
        0.6032556295394897,
        0.37083858251571655
      ],
      "min": [
        0.00541377067565918,
        0.1311144232749939
      ],
      "type": "VEC2"
    },
    {
      "bufferView": 1,
      "byteOffset": 236040,
      "componentType": 5126,
      "count": 705,
      "max": [
        0.6032556295394897,
        0.37083858251571655
      ],
      "min": [
        0.00541377067565918,
        0.1311144232749939
      ],
      "type": "VEC2"
    },
    {
      "bufferView": 1,
      "byteOffset": 241680,
      "componentType": 5126,
      "count": 705,
      "max": [
        0.6032556295394897,
        0.37083858251571655
      ],
      "min": [
        0.00541377067565918,
        0.1311144232749939
      ],
      "type": "VEC2"
    },
    {
      "bufferView": 1,
      "byteOffset": 247320,
      "componentType": 5126,
      "count": 705,
      "max": [
        0.6032556295394897,
        0.37083858251571655
      ],
      "min": [
        0.00541377067565918,
        0.1311144232749939
      ],
      "type": "VEC2"
    },
    {
      "bufferView": 0,
      "byteOffset": 125112,
      "componentType": 5125,
      "count": 3474,
      "type": "SCALAR"
    },
    {
      "bufferView": 2,
      "byteOffset": 189720,
      "componentType": 5126,
      "count": 1818,
      "max": [
        0.03887626901268959,
        -0.007686937693506479,
        0.03887626901268959
      ],
      "min": [
        -0.20299550890922546,
        -0.4331129491329193,
        -0.03887626901268959
      ],
      "type": "VEC3"
    },
    {
      "bufferView": 2,
      "byteOffset": 211536,
      "componentType": 5126,
      "count": 1818,
      "max": [
        1.0,
        1.0,
        0.9999536871910095
      ],
      "min": [
        -1.0,
        -1.0,
        -0.9999536275863647
      ],
      "type": "VEC3"
    },
    {
      "bufferView": 3,
      "byteOffset": 126480,
      "componentType": 5126,
      "count": 1818,
      "max": [
        1.0,
        1.0,
        1.0,
        1.0
      ],
      "min": [
        -1.0,
        -1.0,
        -1.0,
        -1.0
      ],
      "type": "VEC4"
    },
    {
      "bufferView": 1,
      "byteOffset": 252960,
      "componentType": 5126,
      "count": 1818,
      "max": [
        0.9940609931945801,
        0.9945834279060364
      ],
      "min": [
        0.18020907044410706,
        0.005418837070465088
      ],
      "type": "VEC2"
    },
    {
      "bufferView": 1,
      "byteOffset": 267504,
      "componentType": 5126,
      "count": 1818,
      "max": [
        0.9940609931945801,
        0.9945834279060364
      ],
      "min": [
        0.18020907044410706,
        0.005418837070465088
      ],
      "type": "VEC2"
    },
    {
      "bufferView": 1,
      "byteOffset": 282048,
      "componentType": 5126,
      "count": 1818,
      "max": [
        0.9940609931945801,
        0.9945834279060364
      ],
      "min": [
        0.18020907044410706,
        0.005418837070465088
      ],
      "type": "VEC2"
    },
    {
      "bufferView": 1,
      "byteOffset": 296592,
      "componentType": 5126,
      "count": 1818,
      "max": [
        0.9940609931945801,
        0.9945834279060364
      ],
      "min": [
        0.18020907044410706,
        0.005418837070465088
      ],
      "type": "VEC2"
    },
    {
      "bufferView": 0,
      "byteOffset": 139008,
      "componentType": 5125,
      "count": 6276,
      "type": "SCALAR"
    },
    {
      "bufferView": 2,
      "byteOffset": 233352,
      "componentType": 5126,
      "count": 1473,
      "max": [
        0.06184745579957962,
        0.19695037603378296,
        0.3226485550403595
      ],
      "min": [
        -0.06184840202331543,
        -0.5560238361358643,
        -0.06184794008731842
      ],
      "type": "VEC3"
    },
    {
      "bufferView": 2,
      "byteOffset": 251028,
      "componentType": 5126,
      "count": 1473,
      "max": [
        0.9969965815544128,
        1.0,
        1.0
      ],
      "min": [
        -0.9970004558563232,
        -1.0,
        -1.0
      ],
      "type": "VEC3"
    },
    {
      "bufferView": 3,
      "byteOffset": 155568,
      "componentType": 5126,
      "count": 1473,
      "max": [
        1.0,
        1.0,
        0.9999785423278809,
        1.0
      ],
      "min": [
        -1.0,
        -1.0,
        -1.0,
        -1.0
      ],
      "type": "VEC4"
    },
    {
      "bufferView": 1,
      "byteOffset": 311136,
      "componentType": 5126,
      "count": 1473,
      "max": [
        0.9576848745346069,
        0.9834492206573486
      ],
      "min": [
        0.00541338324546814,
        0.0054149446077644825
      ],
      "type": "VEC2"
    },
    {
      "bufferView": 1,
      "byteOffset": 322920,
      "componentType": 5126,
      "count": 1473,
      "max": [
        0.9576848745346069,
        0.9834492206573486
      ],
      "min": [
        0.00541338324546814,
        0.0054149446077644825
      ],
      "type": "VEC2"
    },
    {
      "bufferView": 1,
      "byteOffset": 334704,
      "componentType": 5126,
      "count": 1473,
      "max": [
        0.9576848745346069,
        0.9834492206573486
      ],
      "min": [
        0.00541338324546814,
        0.0054149446077644825
      ],
      "type": "VEC2"
    },
    {
      "bufferView": 1,
      "byteOffset": 346488,
      "componentType": 5126,
      "count": 1473,
      "max": [
        0.9576848745346069,
        0.9834492206573486
      ],
      "min": [
        0.00541338324546814,
        0.0054149446077644825
      ],
      "type": "VEC2"
    },
    {
      "bufferView": 0,
      "byteOffset": 164112,
      "componentType": 5125,
      "count": 5280,
      "type": "SCALAR"
    },
    {
      "bufferView": 2,
      "byteOffset": 268704,
      "componentType": 5126,
      "count": 204,
      "max": [
        0.011538743041455746,
        0.03753940761089325,
        0.04044884815812111
      ],
      "min": [
        -0.011538743041455746,
        -0.0015143813798204064,
        -0.029950518161058426
      ],
      "type": "VEC3"
    },
    {
      "bufferView": 2,
      "byteOffset": 271152,
      "componentType": 5126,
      "count": 204,
      "max": [
        0.9995429515838623,
        1.0,
        0.9992413520812988
      ],
      "min": [
        -0.9995430707931519,
        -0.893389880657196,
        -1.0
      ],
      "type": "VEC3"
    },
    {
      "bufferView": 3,
      "byteOffset": 179136,
      "componentType": 5126,
      "count": 204,
      "max": [
        0.9999889135360718,
        0.9462444186210632,
        0.999555230140686,
        1.0
      ],
      "min": [
        -0.9999995827674866,
        -0.9525666832923889,
        -0.9996328949928284,
        1.0
      ],
      "type": "VEC4"
    },
    {
      "bufferView": 1,
      "byteOffset": 358272,
      "componentType": 5126,
      "count": 204,
      "max": [
        0.7468903064727783,
        0.9376691579818726
      ],
      "min": [
        0.06739819049835205,
        0.14583860337734222
      ],
      "type": "VEC2"
    },
    {
      "bufferView": 1,
      "byteOffset": 359904,
      "componentType": 5126,
      "count": 204,
      "max": [
        0.7468903064727783,
        0.9376691579818726
      ],
      "min": [
        0.06739819049835205,
        0.14583860337734222
      ],
      "type": "VEC2"
    },
    {
      "bufferView": 1,
      "byteOffset": 361536,
      "componentType": 5126,
      "count": 204,
      "max": [
        0.7468903064727783,
        0.9376691579818726
      ],
      "min": [
        0.06739819049835205,
        0.14583860337734222
      ],
      "type": "VEC2"
    },
    {
      "bufferView": 1,
      "byteOffset": 363168,
      "componentType": 5126,
      "count": 204,
      "max": [
        0.7468903064727783,
        0.9376691579818726
      ],
      "min": [
        0.06739819049835205,
        0.14583860337734222
      ],
      "type": "VEC2"
    },
    {
      "bufferView": 0,
      "byteOffset": 185232,
      "componentType": 5125,
      "count": 708,
      "type": "SCALAR"
    },
    {
      "bufferView": 2,
      "byteOffset": 273600,
      "componentType": 5126,
      "count": 184,
      "max": [
        0.12786684930324554,
        0.004189215134829283,
        0.09454155713319778
      ],
      "min": [
        -0.12786684930324554,
        -0.001955623971298337,
        -0.09454155713319778
      ],
      "type": "VEC3"
    },
    {
      "bufferView": 2,
      "byteOffset": 275808,
      "componentType": 5126,
      "count": 184,
      "max": [
        0.9951847195625305,
        1.0,
        0.9951847195625305
      ],
      "min": [
        -0.9951847195625305,
        0.0,
        -0.9951847195625305
      ],
      "type": "VEC3"
    },
    {
      "bufferView": 3,
      "byteOffset": 182400,
      "componentType": 5126,
      "count": 184,
      "max": [
        1.0,
        0.9992672204971313,
        0.538040816783905,
        1.0
      ],
      "min": [
        -0.9999915361404419,
        -0.9992663264274597,
        -0.9606700539588928,
        1.0
      ],
      "type": "VEC4"
    },
    {
      "bufferView": 1,
      "byteOffset": 364800,
      "componentType": 5126,
      "count": 184,
      "max": [
        0.8722464442253113,
        0.755713939666748
      ],
      "min": [
        0.316545307636261,
        0.04063889756798744
      ],
      "type": "VEC2"
    },
    {
      "bufferView": 1,
      "byteOffset": 366272,
      "componentType": 5126,
      "count": 184,
      "max": [
        0.8722464442253113,
        0.755713939666748
      ],
      "min": [
        0.316545307636261,
        0.04063889756798744
      ],
      "type": "VEC2"
    },
    {
      "bufferView": 1,
      "byteOffset": 367744,
      "componentType": 5126,
      "count": 184,
      "max": [
        0.8722464442253113,
        0.755713939666748
      ],
      "min": [
        0.316545307636261,
        0.04063889756798744
      ],
      "type": "VEC2"
    },
    {
      "bufferView": 1,
      "byteOffset": 369216,
      "componentType": 5126,
      "count": 184,
      "max": [
        0.8722464442253113,
        0.755713939666748
      ],
      "min": [
        0.316545307636261,
        0.04063889756798744
      ],
      "type": "VEC2"
    },
    {
      "bufferView": 0,
      "byteOffset": 188064,
      "componentType": 5125,
      "count": 774,
      "type": "SCALAR"
    },
    {
      "bufferView": 2,
      "byteOffset": 278016,
      "componentType": 5126,
      "count": 704,
      "max": [
        0.14415830373764038,
        0.2612893283367157,
        0.14415593445301056
      ],
      "min": [
        -0.14415588974952698,
        -0.020405277609825134,
        -0.14415587484836578
      ],
      "type": "VEC3"
    },
    {
      "bufferView": 2,
      "byteOffset": 286464,
      "componentType": 5126,
      "count": 704,
      "max": [
        0.9999711513519287,
        1.0,
        0.9991392493247986
      ],
      "min": [
        -0.9999997615814209,
        -1.0,
        -0.9991391897201538
      ],
      "type": "VEC3"
    },
    {
      "bufferView": 3,
      "byteOffset": 185344,
      "componentType": 5126,
      "count": 704,
      "max": [
        0.9999999403953552,
        0.9962326884269714,
        1.0,
        1.0
      ],
      "min": [
        -1.0,
        -0.9962325692176819,
        -0.9999995827674866,
        -1.0
      ],
      "type": "VEC4"
    },
    {
      "bufferView": 1,
      "byteOffset": 370688,
      "componentType": 5126,
      "count": 704,
      "max": [
        0.9799548983573914,
        0.6974724531173706
      ],
      "min": [
        0.007972592487931252,
        0.28391239047050476
      ],
      "type": "VEC2"
    },
    {
      "bufferView": 1,
      "byteOffset": 376320,
      "componentType": 5126,
      "count": 704,
      "max": [
        0.9799548983573914,
        0.6974724531173706
      ],
      "min": [
        0.007972592487931252,
        0.28391239047050476
      ],
      "type": "VEC2"
    },
    {
      "bufferView": 1,
      "byteOffset": 381952,
      "componentType": 5126,
      "count": 704,
      "max": [
        0.9799548983573914,
        0.6974724531173706
      ],
      "min": [
        0.007972592487931252,
        0.28391239047050476
      ],
      "type": "VEC2"
    },
    {
      "bufferView": 1,
      "byteOffset": 387584,
      "componentType": 5126,
      "count": 704,
      "max": [
        0.9799548983573914,
        0.6974724531173706
      ],
      "min": [
        0.007972592487931252,
        0.28391239047050476
      ],
      "type": "VEC2"
    },
    {
      "bufferView": 0,
      "byteOffset": 191160,
      "componentType": 5125,
      "count": 3504,
      "type": "SCALAR"
    },
    {
      "bufferView": 2,
      "byteOffset": 294912,
      "componentType": 5126,
      "count": 552,
      "max": [
        0.14889471232891083,
        0.00651852460578084,
        0.16407856345176697
      ],
      "min": [
        -0.14889678359031677,
        -0.006524249445647001,
        -0.0060455990023911
      ],
      "type": "VEC3"
    },
    {
      "bufferView": 2,
      "byteOffset": 301536,
      "componentType": 5126,
      "count": 552,
      "max": [
        0.9996438026428223,
        1.0,
        1.0
      ],
      "min": [
        -0.9996349215507507,
        -1.0,
        -1.0
      ],
      "type": "VEC3"
    },
    {
      "bufferView": 3,
      "byteOffset": 196608,
      "componentType": 5126,
      "count": 552,
      "max": [
        1.0,
        1.0,
        0.9879419803619385,
        1.0
      ],
      "min": [
        -1.0,
        -1.0,
        -0.9879400134086609,
        1.0
      ],
      "type": "VEC4"
    },
    {
      "bufferView": 1,
      "byteOffset": 393216,
      "componentType": 5126,
      "count": 552,
      "max": [
        0.9923298358917236,
        0.9853687882423401
      ],
      "min": [
        0.6348426938056946,
        0.0076704975217580795
      ],
      "type": "VEC2"
    },
    {
      "bufferView": 1,
      "byteOffset": 397632,
      "componentType": 5126,
      "count": 552,
      "max": [
        0.9923298358917236,
        0.9853687882423401
      ],
      "min": [
        0.6348426938056946,
        0.0076704975217580795
      ],
      "type": "VEC2"
    },
    {
      "bufferView": 1,
      "byteOffset": 402048,
      "componentType": 5126,
      "count": 552,
      "max": [
        0.9923298358917236,
        0.9853687882423401
      ],
      "min": [
        0.6348426938056946,
        0.0076704975217580795
      ],
      "type": "VEC2"
    },
    {
      "bufferView": 1,
      "byteOffset": 406464,
      "componentType": 5126,
      "count": 552,
      "max": [
        0.9923298358917236,
        0.9853687882423401
      ],
      "min": [
        0.6348426938056946,
        0.0076704975217580795
      ],
      "type": "VEC2"
    },
    {
      "bufferView": 0,
      "byteOffset": 205176,
      "componentType": 5125,
      "count": 1596,
      "type": "SCALAR"
    },
    {
      "bufferView": 2,
      "byteOffset": 308160,
      "componentType": 5126,
      "count": 957,
      "max": [
        0.2611962556838989,
        0.40000003576278687,
        0.21234583854675293
      ],
      "min": [
        -0.26363635063171387,
        -5.286516113756079e-09,
        -0.21234583854675293
      ],
      "type": "VEC3"
    },
    {
      "bufferView": 2,
      "byteOffset": 319644,
      "componentType": 5126,
      "count": 957,
      "max": [
        1.0,
        1.0,
        1.0
      ],
      "min": [
        -0.9999872446060181,
        -0.9993283748626709,
        -1.0
      ],
      "type": "VEC3"
    },
    {
      "bufferView": 3,
      "byteOffset": 205440,
      "componentType": 5126,
      "count": 957,
      "max": [
        0.9999589323997498,
        0.9997473359107971,
        1.0,
        1.0
      ],
      "min": [
        -0.9973258376121521,
        -0.9995449185371399,
        -0.997397780418396,
        1.0
      ],
      "type": "VEC4"
    },
    {
      "bufferView": 1,
      "byteOffset": 410880,
      "componentType": 5126,
      "count": 957,
      "max": [
        0.9699289202690125,
        0.5079509615898132
      ],
      "min": [
        0.007670497987419367,
        0.007667243480682373
      ],
      "type": "VEC2"
    },
    {
      "bufferView": 1,
      "byteOffset": 418536,
      "componentType": 5126,
      "count": 957,
      "max": [
        0.9699289202690125,
        0.5079509615898132
      ],
      "min": [
        0.007670497987419367,
        0.007667243480682373
      ],
      "type": "VEC2"
    },
    {
      "bufferView": 1,
      "byteOffset": 426192,
      "componentType": 5126,
      "count": 957,
      "max": [
        0.9699289202690125,
        0.5079509615898132
      ],
      "min": [
        0.007670497987419367,
        0.007667243480682373
      ],
      "type": "VEC2"
    },
    {
      "bufferView": 1,
      "byteOffset": 433848,
      "componentType": 5126,
      "count": 957,
      "max": [
        0.9699289202690125,
        0.5079509615898132
      ],
      "min": [
        0.007670497987419367,
        0.007667243480682373
      ],
      "type": "VEC2"
    },
    {
      "bufferView": 0,
      "byteOffset": 211560,
      "componentType": 5125,
      "count": 3780,
      "type": "SCALAR"
    },
    {
      "bufferView": 2,
      "byteOffset": 331128,
      "componentType": 5126,
      "count": 142,
      "max": [
        -0.11706401407718658,
        0.4041137099266052,
        0.12090243399143219
      ],
      "min": [
        -0.18844014406204224,
        0.3681136965751648,
        -0.12090243399143219
      ],
      "type": "VEC3"
    },
    {
      "bufferView": 2,
      "byteOffset": 332832,
      "componentType": 5126,
      "count": 142,
      "max": [
        0.9852699041366577,
        1.0,
        0.9862197637557983
      ],
      "min": [
        -0.9999743700027466,
        0.0,
        -0.9862197637557983
      ],
      "type": "VEC3"
    },
    {
      "bufferView": 3,
      "byteOffset": 220752,
      "componentType": 5126,
      "count": 142,
      "max": [
        1.2788630101567833e-06,
        2.910149987656041e-07,
        0.6486908793449402,
        1.0
      ],
      "min": [
        -0.7610782980918884,
        -1.0,
        -0.6486944556236267,
        -1.0
      ],
      "type": "VEC4"
    },
    {
      "bufferView": 1,
      "byteOffset": 441504,
      "componentType": 5126,
      "count": 142,
      "max": [
        1.9016938209533691,
        0.8641204237937927
      ],
      "min": [
        0.8643453121185303,
        0.2051607370376587
      ],
      "type": "VEC2"
    },
    {
      "bufferView": 1,
      "byteOffset": 442640,
      "componentType": 5126,
      "count": 142,
      "max": [
        1.9016938209533691,
        0.8641204237937927
      ],
      "min": [
        0.8643453121185303,
        0.2051607370376587
      ],
      "type": "VEC2"
    },
    {
      "bufferView": 1,
      "byteOffset": 443776,
      "componentType": 5126,
      "count": 142,
      "max": [
        1.9016938209533691,
        0.8641204237937927
      ],
      "min": [
        0.8643453121185303,
        0.2051607370376587
      ],
      "type": "VEC2"
    },
    {
      "bufferView": 1,
      "byteOffset": 444912,
      "componentType": 5126,
      "count": 142,
      "max": [
        1.9016938209533691,
        0.8641204237937927
      ],
      "min": [
        0.8643453121185303,
        0.2051607370376587
      ],
      "type": "VEC2"
    },
    {
      "bufferView": 0,
      "byteOffset": 226680,
      "componentType": 5125,
      "count": 402,
      "type": "SCALAR"
    },
    {
      "bufferView": 2,
      "byteOffset": 334536,
      "componentType": 5126,
      "count": 512,
      "max": [
        0.25442230701446533,
        0.4196845591068268,
        0.20297738909721375
      ],
      "min": [
        -0.2575974464416504,
        0.0008211322128772736,
        -0.20297738909721375
      ],
      "type": "VEC3"
    },
    {
      "bufferView": 2,
      "byteOffset": 340680,
      "componentType": 5126,
      "count": 512,
      "max": [
        0.9998182058334351,
        1.0,
        1.0
      ],
      "min": [
        -0.9931629300117493,
        -0.9943538904190063,
        -1.0
      ],
      "type": "VEC3"
    },
    {
      "bufferView": 3,
      "byteOffset": 223024,
      "componentType": 5126,
      "count": 512,
      "max": [
        1.0,
        0.9984421730041504,
        0.9933875203132629,
        1.0
      ],
      "min": [
        -1.0,
        -0.9967325329780579,
        -1.0,
        1.0
      ],
      "type": "VEC4"
    },
    {
      "bufferView": 1,
      "byteOffset": 446048,
      "componentType": 5126,
      "count": 512,
      "max": [
        0.9920932650566101,
        0.6491990685462952
      ],
      "min": [
        0.4506179392337799,
        0.2798071503639221
      ],
      "type": "VEC2"
    },
    {
      "bufferView": 1,
      "byteOffset": 450144,
      "componentType": 5126,
      "count": 512,
      "max": [
        0.9920932650566101,
        0.6491990685462952
      ],
      "min": [
        0.4506179392337799,
        0.2798071503639221
      ],
      "type": "VEC2"
    },
    {
      "bufferView": 1,
      "byteOffset": 454240,
      "componentType": 5126,
      "count": 512,
      "max": [
        0.9920932650566101,
        0.6491990685462952
      ],
      "min": [
        0.4506179392337799,
        0.2798071503639221
      ],
      "type": "VEC2"
    },
    {
      "bufferView": 1,
      "byteOffset": 458336,
      "componentType": 5126,
      "count": 512,
      "max": [
        0.9920932650566101,
        0.6491990685462952
      ],
      "min": [
        0.4506179392337799,
        0.2798071503639221
      ],
      "type": "VEC2"
    },
    {
      "bufferView": 0,
      "byteOffset": 228288,
      "componentType": 5125,
      "count": 2238,
      "type": "SCALAR"
    },
    {
      "bufferView": 2,
      "byteOffset": 346824,
      "componentType": 5126,
      "count": 486,
      "max": [
        0.4224051237106323,
        0.031208181753754616,
        0.172176793217659
      ],
      "min": [
        -0.01241335365921259,
        -0.00849464163184166,
        -0.17212866246700287
      ],
      "type": "VEC3"
    },
    {
      "bufferView": 2,
      "byteOffset": 352656,
      "componentType": 5126,
      "count": 486,
      "max": [
        0.998831033706665,
        1.0,
        0.9997501969337463
      ],
      "min": [
        -0.9987834692001343,
        -1.0,
        -0.9997482299804688
      ],
      "type": "VEC3"
    },
    {
      "bufferView": 3,
      "byteOffset": 231216,
      "componentType": 5126,
      "count": 486,
      "max": [
        0.5803425908088684,
        0.9999992847442627,
        0.0009090665262192488,
        1.0
      ],
      "min": [
        -0.5834199786186218,
        -0.9991238117218018,
        -1.0,
        1.0
      ],
      "type": "VEC4"
    },
    {
      "bufferView": 1,
      "byteOffset": 462432,
      "componentType": 5126,
      "count": 486,
      "max": [
        0.6280731558799744,
        0.9594696164131165
      ],
      "min": [
        0.007708375342190266,
        0.6622759103775024
      ],
      "type": "VEC2"
    },
    {
      "bufferView": 1,
      "byteOffset": 466320,
      "componentType": 5126,
      "count": 486,
      "max": [
        0.6280731558799744,
        0.9594696164131165
      ],
      "min": [
        0.007708375342190266,
        0.6622759103775024
      ],
      "type": "VEC2"
    },
    {
      "bufferView": 1,
      "byteOffset": 470208,
      "componentType": 5126,
      "count": 486,
      "max": [
        0.6280731558799744,
        0.9594696164131165
      ],
      "min": [
        0.007708375342190266,
        0.6622759103775024
      ],
      "type": "VEC2"
    },
    {
      "bufferView": 1,
      "byteOffset": 474096,
      "componentType": 5126,
      "count": 486,
      "max": [
        0.6280731558799744,
        0.9594696164131165
      ],
      "min": [
        0.007708375342190266,
        0.6622759103775024
      ],
      "type": "VEC2"
    },
    {
      "bufferView": 0,
      "byteOffset": 237240,
      "componentType": 5125,
      "count": 2520,
      "type": "SCALAR"
    },
    {
      "bufferView": 2,
      "byteOffset": 358488,
      "componentType": 5126,
      "count": 52,
      "max": [
        0.05436250939965248,
        0.008670398965477943,
        0.005064684897661209
      ],
      "min": [
        0.04211626946926117,
        -0.008253169246017933,
        -0.005064688622951508
      ],
      "type": "VEC3"
    },
    {
      "bufferView": 2,
      "byteOffset": 359112,
      "componentType": 5126,
      "count": 52,
      "max": [
        1.0,
        2.7554546022656723e-07,
        1.0
      ],
      "min": [
        -1.0,
        -1.0,
        -1.0
      ],
      "type": "VEC3"
    },
    {
      "bufferView": 3,
      "byteOffset": 238992,
      "componentType": 5126,
      "count": 52,
      "max": [
        1.0,
        1.0,
        1.0,
        1.0
      ],
      "min": [
        -1.0,
        -1.0,
        -1.0,
        1.0
      ],
      "type": "VEC4"
    },
    {
      "bufferView": 1,
      "byteOffset": 477984,
      "componentType": 5126,
      "count": 52,
      "max": [
        0.9249891638755798,
        0.3920709192752838
      ],
      "min": [
        0.12962716817855835,
        0.21018145978450775
      ],
      "type": "VEC2"
    },
    {
      "bufferView": 1,
      "byteOffset": 478400,
      "componentType": 5126,
      "count": 52,
      "max": [
        0.9249891638755798,
        0.3920709192752838
      ],
      "min": [
        0.12962716817855835,
        0.21018145978450775
      ],
      "type": "VEC2"
    },
    {
      "bufferView": 1,
      "byteOffset": 478816,
      "componentType": 5126,
      "count": 52,
      "max": [
        0.9249891638755798,
        0.3920709192752838
      ],
      "min": [
        0.12962716817855835,
        0.21018145978450775
      ],
      "type": "VEC2"
    },
    {
      "bufferView": 1,
      "byteOffset": 479232,
      "componentType": 5126,
      "count": 52,
      "max": [
        0.9249891638755798,
        0.3920709192752838
      ],
      "min": [
        0.12962716817855835,
        0.21018145978450775
      ],
      "type": "VEC2"
    },
    {
      "bufferView": 0,
      "byteOffset": 247320,
      "componentType": 5125,
      "count": 78,
      "type": "SCALAR"
    },
    {
      "bufferView": 2,
      "byteOffset": 359736,
      "componentType": 5126,
      "count": 76,
      "max": [
        0.009436225518584251,
        -9.173527359962463e-08,
        0.04417090862989426
      ],
      "min": [
        -0.009436225518584251,
        -0.024999935179948807,
        -0.04417090862989426
      ],
      "type": "VEC3"
    },
    {
      "bufferView": 2,
      "byteOffset": 360648,
      "componentType": 5126,
      "count": 76,
      "max": [
        0.9988899230957031,
        1.0,
        1.0
      ],
      "min": [
        -0.9988899230957031,
        -1.0,
        -1.0
      ],
      "type": "VEC3"
    },
    {
      "bufferView": 3,
      "byteOffset": 239824,
      "componentType": 5126,
      "count": 76,
      "max": [
        0.9999996423721313,
        0.9988899230957031,
        0.10079769790172577,
        1.0
      ],
      "min": [
        -0.9489434957504272,
        -0.9999271631240845,
        -1.0,
        1.0
      ],
      "type": "VEC4"
    },
    {
      "bufferView": 1,
      "byteOffset": 479648,
      "componentType": 5126,
      "count": 76,
      "max": [
        0.8593459129333496,
        0.43248099088668823
      ],
      "min": [
        0.5605646371841431,
        0.31455153226852417
      ],
      "type": "VEC2"
    },
    {
      "bufferView": 1,
      "byteOffset": 480256,
      "componentType": 5126,
      "count": 76,
      "max": [
        0.8593459129333496,
        0.43248099088668823
      ],
      "min": [
        0.5605646371841431,
        0.31455153226852417
      ],
      "type": "VEC2"
    },
    {
      "bufferView": 1,
      "byteOffset": 480864,
      "componentType": 5126,
      "count": 76,
      "max": [
        0.8593459129333496,
        0.43248099088668823
      ],
      "min": [
        0.5605646371841431,
        0.31455153226852417
      ],
      "type": "VEC2"
    },
    {
      "bufferView": 1,
      "byteOffset": 481472,
      "componentType": 5126,
      "count": 76,
      "max": [
        0.8593459129333496,
        0.43248099088668823
      ],
      "min": [
        0.5605646371841431,
        0.31455153226852417
      ],
      "type": "VEC2"
    },
    {
      "bufferView": 0,
      "byteOffset": 247632,
      "componentType": 5125,
      "count": 204,
      "type": "SCALAR"
    },
    {
      "bufferView": 2,
      "byteOffset": 361560,
      "componentType": 5126,
      "count": 326,
      "max": [
        0.010485028848052025,
        0.0074405428022146225,
        0.0685143768787384
      ],
      "min": [
        -0.007173977792263031,
        -0.00935416854918003,
        -0.0685143768787384
      ],
      "type": "VEC3"
    },
    {
      "bufferView": 2,
      "byteOffset": 365472,
      "componentType": 5126,
      "count": 326,
      "max": [
        1.0,
        0.9510567784309387,
        1.0
      ],
      "min": [
        -1.0,
        -0.9510567784309387,
        -1.0
      ],
      "type": "VEC3"
    },
    {
      "bufferView": 3,
      "byteOffset": 241040,
      "componentType": 5126,
      "count": 326,
      "max": [
        1.0,
        0.9881081581115723,
        1.0,
        1.0
      ],
      "min": [
        -1.0,
        -0.9986435174942017,
        -1.0,
        -1.0
      ],
      "type": "VEC4"
    },
    {
      "bufferView": 1,
      "byteOffset": 482080,
      "componentType": 5126,
      "count": 326,
      "max": [
        1.9876853227615356,
        0.37158578634262085
      ],
      "min": [
        0.4540272057056427,
        0.2797382175922394
      ],
      "type": "VEC2"
    },
    {
      "bufferView": 1,
      "byteOffset": 484688,
      "componentType": 5126,
      "count": 326,
      "max": [
        1.9876853227615356,
        0.37158578634262085
      ],
      "min": [
        0.4540272057056427,
        0.2797382175922394
      ],
      "type": "VEC2"
    },
    {
      "bufferView": 1,
      "byteOffset": 487296,
      "componentType": 5126,
      "count": 326,
      "max": [
        1.9876853227615356,
        0.37158578634262085
      ],
      "min": [
        0.4540272057056427,
        0.2797382175922394
      ],
      "type": "VEC2"
    },
    {
      "bufferView": 1,
      "byteOffset": 489904,
      "componentType": 5126,
      "count": 326,
      "max": [
        1.9876853227615356,
        0.37158578634262085
      ],
      "min": [
        0.4540272057056427,
        0.2797382175922394
      ],
      "type": "VEC2"
    },
    {
      "bufferView": 0,
      "byteOffset": 248448,
      "componentType": 5125,
      "count": 1020,
      "type": "SCALAR"
    },
    {
      "bufferView": 2,
      "byteOffset": 369384,
      "componentType": 5126,
      "count": 96,
      "max": [
        0.016616301611065865,
        0.009540092200040817,
        0.1169513538479805
      ],
      "min": [
        -0.010258495807647705,
        -0.008461840450763702,
        -0.1169513538479805
      ],
      "type": "VEC3"
    },
    {
      "bufferView": 2,
      "byteOffset": 370536,
      "componentType": 5126,
      "count": 96,
      "max": [
        1.0,
        0.9999168515205383,
        1.0
      ],
      "min": [
        -1.0,
        -1.0,
        -1.0
      ],
      "type": "VEC3"
    },
    {
      "bufferView": 3,
      "byteOffset": 246256,
      "componentType": 5126,
      "count": 96,
      "max": [
        0.9999833703041077,
        0.9999792575836182,
        0.999977171421051,
        1.0
      ],
      "min": [
        -0.9999797344207764,
        -0.9999918937683105,
        -0.999977171421051,
        -1.0
      ],
      "type": "VEC4"
    },
    {
      "bufferView": 1,
      "byteOffset": 492512,
      "componentType": 5126,
      "count": 96,
      "max": [
        1.899226427078247,
        0.37667518854141235
      ],
      "min": [
        0.8747574687004089,
        0.32485431432724
      ],
      "type": "VEC2"
    },
    {
      "bufferView": 1,
      "byteOffset": 493280,
      "componentType": 5126,
      "count": 96,
      "max": [
        1.899226427078247,
        0.37667518854141235
      ],
      "min": [
        0.8747574687004089,
        0.32485431432724
      ],
      "type": "VEC2"
    },
    {
      "bufferView": 1,
      "byteOffset": 494048,
      "componentType": 5126,
      "count": 96,
      "max": [
        1.899226427078247,
        0.37667518854141235
      ],
      "min": [
        0.8747574687004089,
        0.32485431432724
      ],
      "type": "VEC2"
    },
    {
      "bufferView": 1,
      "byteOffset": 494816,
      "componentType": 5126,
      "count": 96,
      "max": [
        1.899226427078247,
        0.37667518854141235
      ],
      "min": [
        0.8747574687004089,
        0.32485431432724
      ],
      "type": "VEC2"
    },
    {
      "bufferView": 0,
      "byteOffset": 252528,
      "componentType": 5125,
      "count": 144,
      "type": "SCALAR"
    },
    {
      "bufferView": 2,
      "byteOffset": 371688,
      "componentType": 5126,
      "count": 120,
      "max": [
        0.1670476794242859,
        0.40529197454452515,
        0.15031792223453522
      ],
      "min": [
        -0.06532876938581467,
        0.3997531533241272,
        -0.14886194467544556
      ],
      "type": "VEC3"
    },
    {
      "bufferView": 2,
      "byteOffset": 373128,
      "componentType": 5126,
      "count": 120,
      "max": [
        0.9866817593574524,
        0.7779906988143921,
        0.9791703820228577
      ],
      "min": [
        -0.9866825342178345,
        0.16246135532855988,
        -0.9791691303253174
      ],
      "type": "VEC3"
    },
    {
      "bufferView": 3,
      "byteOffset": 247792,
      "componentType": 5126,
      "count": 120,
      "max": [
        0.9734139442443848,
        0.9867060780525208,
        0.709036111831665,
        1.0
      ],
      "min": [
        -0.6421041488647461,
        -0.9867064952850342,
        -0.7091593742370605,
        1.0
      ],
      "type": "VEC4"
    },
    {
      "bufferView": 1,
      "byteOffset": 495584,
      "componentType": 5126,
      "count": 120,
      "max": [
        0.986967921257019,
        0.9859556555747986
      ],
      "min": [
        0.9761474132537842,
        0.6806700229644775
      ],
      "type": "VEC2"
    },
    {
      "bufferView": 1,
      "byteOffset": 496544,
      "componentType": 5126,
      "count": 120,
      "max": [
        0.986967921257019,
        0.9859556555747986
      ],
      "min": [
        0.9761474132537842,
        0.6806700229644775
      ],
      "type": "VEC2"
    },
    {
      "bufferView": 1,
      "byteOffset": 497504,
      "componentType": 5126,
      "count": 120,
      "max": [
        0.986967921257019,
        0.9859556555747986
      ],
      "min": [
        0.9761474132537842,
        0.6806700229644775
      ],
      "type": "VEC2"
    },
    {
      "bufferView": 1,
      "byteOffset": 498464,
      "componentType": 5126,
      "count": 120,
      "max": [
        0.986967921257019,
        0.9859556555747986
      ],
      "min": [
        0.9761474132537842,
        0.6806700229644775
      ],
      "type": "VEC2"
    },
    {
      "bufferView": 0,
      "byteOffset": 253104,
      "componentType": 5125,
      "count": 516,
      "type": "SCALAR"
    },
    {
      "bufferView": 2,
      "byteOffset": 374568,
      "componentType": 5126,
      "count": 958,
      "max": [
        0.3670390546321869,
        0.00715425843372941,
        0.15268568694591522
      ],
      "min": [
        -0.00993515457957983,
        -0.012017649598419666,
        -0.15268568694591522
      ],
      "type": "VEC3"
    },
    {
      "bufferView": 2,
      "byteOffset": 386064,
      "componentType": 5126,
      "count": 958,
      "max": [
        0.9731789827346802,
        0.9994440078735352,
        0.9727420806884766
      ],
      "min": [
        -0.9541473984718323,
        -0.999444842338562,
        -0.9727420806884766
      ],
      "type": "VEC3"
    },
    {
      "bufferView": 3,
      "byteOffset": 249712,
      "componentType": 5126,
      "count": 958,
      "max": [
        0.9894596934318542,
        0.9745237827301025,
        0.9999997615814209,
        1.0
      ],
      "min": [
        -0.9906712174415588,
        -0.965417206287384,
        -0.9684810042381287,
        1.0
      ],
      "type": "VEC4"
    },
    {
      "bufferView": 1,
      "byteOffset": 499424,
      "componentType": 5126,
      "count": 958,
      "max": [
        0.8490159511566162,
        0.988358199596405
      ],
      "min": [
        0.2262485921382904,
        0.6623095870018005
      ],
      "type": "VEC2"
    },
    {
      "bufferView": 1,
      "byteOffset": 507088,
      "componentType": 5126,
      "count": 958,
      "max": [
        0.8490159511566162,
        0.988358199596405
      ],
      "min": [
        0.2262485921382904,
        0.6623095870018005
      ],
      "type": "VEC2"
    },
    {
      "bufferView": 1,
      "byteOffset": 514752,
      "componentType": 5126,
      "count": 958,
      "max": [
        0.8490159511566162,
        0.988358199596405
      ],
      "min": [
        0.2262485921382904,
        0.6623095870018005
      ],
      "type": "VEC2"
    },
    {
      "bufferView": 1,
      "byteOffset": 522416,
      "componentType": 5126,
      "count": 958,
      "max": [
        0.8490159511566162,
        0.988358199596405
      ],
      "min": [
        0.2262485921382904,
        0.6623095870018005
      ],
      "type": "VEC2"
    },
    {
      "bufferView": 0,
      "byteOffset": 255168,
      "componentType": 5125,
      "count": 5088,
      "type": "SCALAR"
    },
    {
      "bufferView": 2,
      "byteOffset": 397560,
      "componentType": 5126,
      "count": 14,
      "max": [
        0.0028327852487564087,
        0.003271101973950863,
        0.016227329149842262
      ],
      "min": [
        -0.002832934260368347,
        -0.0032711022067815065,
        -0.016227347776293755
      ],
      "type": "VEC3"
    },
    {
      "bufferView": 2,
      "byteOffset": 397728,
      "componentType": 5126,
      "count": 14,
      "max": [
        0.8660316467285156,
        1.0,
        -0.0
      ],
      "min": [
        -0.8660316467285156,
        -1.0,
        -0.0
      ],
      "type": "VEC3"
    },
    {
      "bufferView": 3,
      "byteOffset": 265040,
      "componentType": 5126,
      "count": 14,
      "max": [
        1.365906314276799e-06,
        2.117404164891923e-06,
        1.0,
        1.0
      ],
      "min": [
        0.0,
        -1.0585870313661871e-06,
        1.0,
        1.0
      ],
      "type": "VEC4"
    },
    {
      "bufferView": 1,
      "byteOffset": 530080,
      "componentType": 5126,
      "count": 14,
      "max": [
        0.6651861667633057,
        0.40020743012428284
      ],
      "min": [
        0.6452442407608032,
        0.38814765214920044
      ],
      "type": "VEC2"
    },
    {
      "bufferView": 1,
      "byteOffset": 530192,
      "componentType": 5126,
      "count": 14,
      "max": [
        0.6651861667633057,
        0.40020743012428284
      ],
      "min": [
        0.6452442407608032,
        0.38814765214920044
      ],
      "type": "VEC2"
    },
    {
      "bufferView": 1,
      "byteOffset": 530304,
      "componentType": 5126,
      "count": 14,
      "max": [
        0.6651861667633057,
        0.40020743012428284
      ],
      "min": [
        0.6452442407608032,
        0.38814765214920044
      ],
      "type": "VEC2"
    },
    {
      "bufferView": 1,
      "byteOffset": 530416,
      "componentType": 5126,
      "count": 14,
      "max": [
        0.6651861667633057,
        0.40020743012428284
      ],
      "min": [
        0.6452442407608032,
        0.38814765214920044
      ],
      "type": "VEC2"
    },
    {
      "bufferView": 0,
      "byteOffset": 275520,
      "componentType": 5125,
      "count": 36,
      "type": "SCALAR"
    },
    {
      "bufferView": 2,
      "byteOffset": 397896,
      "componentType": 5126,
      "count": 350,
      "max": [
        -0.013181587681174278,
        0.19402843713760376,
        0.02615540102124214
      ],
      "min": [
        -0.02725016325712204,
        -0.14765900373458862,
        -0.31867238879203796
      ],
      "type": "VEC3"
    },
    {
      "bufferView": 2,
      "byteOffset": 402096,
      "componentType": 5126,
      "count": 350,
      "max": [
        1.0,
        1.0,
        0.9899874925613403
      ],
      "min": [
        -0.9338734149932861,
        -1.0,
        -0.9922966361045837
      ],
      "type": "VEC3"
    },
    {
      "bufferView": 3,
      "byteOffset": 265264,
      "componentType": 5126,
      "count": 350,
      "max": [
        0.9877629280090332,
        1.0,
        0.9041360020637512,
        1.0
      ],
      "min": [
        -0.9881304502487183,
        -0.9991042613983154,
        -0.9041467308998108,
        -1.0
      ],
      "type": "VEC4"
    },
    {
      "bufferView": 1,
      "byteOffset": 530528,
      "componentType": 5126,
      "count": 350,
      "max": [
        1.95872163772583,
        0.40583232045173645
      ],
      "min": [
        0.5788394212722778,
        0.21223092079162598
      ],
      "type": "VEC2"
    },
    {
      "bufferView": 1,
      "byteOffset": 533328,
      "componentType": 5126,
      "count": 350,
      "max": [
        1.95872163772583,
        0.40583232045173645
      ],
      "min": [
        0.5788394212722778,
        0.21223092079162598
      ],
      "type": "VEC2"
    },
    {
      "bufferView": 1,
      "byteOffset": 536128,
      "componentType": 5126,
      "count": 350,
      "max": [
        1.95872163772583,
        0.40583232045173645
      ],
      "min": [
        0.5788394212722778,
        0.21223092079162598
      ],
      "type": "VEC2"
    },
    {
      "bufferView": 1,
      "byteOffset": 538928,
      "componentType": 5126,
      "count": 350,
      "max": [
        1.95872163772583,
        0.40583232045173645
      ],
      "min": [
        0.5788394212722778,
        0.21223092079162598
      ],
      "type": "VEC2"
    },
    {
      "bufferView": 0,
      "byteOffset": 275664,
      "componentType": 5125,
      "count": 528,
      "type": "SCALAR"
    }
  ],
  "asset": {
    "extras": {
      "author": "SeverDoes3D (https://sketchfab.com/SeverDoes3D)",
      "license": "CC-BY-4.0 (http://creativecommons.org/licenses/by/4.0/)",
      "source": "https://sketchfab.com/3d-models/shower-room-assets-8e13a866ee184bed95bb5b59ddee62cd",
      "title": "Shower Room - Assets"
    },
    "generator": "Sketchfab-12.68.0",
    "version": "2.0"
  },
  "bufferViews": [
    {
      "buffer": 0,
      "byteLength": 277776,
      "name": "floatBufferViews",
      "target": 34963
    },
    {
      "buffer": 0,
      "byteLength": 541728,
      "byteOffset": 277776,
      "byteStride": 8,
      "name": "floatBufferViews",
      "target": 34962
    },
    {
      "buffer": 0,
      "byteLength": 406296,
      "byteOffset": 819504,
      "byteStride": 12,
      "name": "floatBufferViews",
      "target": 34962
    },
    {
      "buffer": 0,
      "byteLength": 270864,
      "byteOffset": 1225800,
      "byteStride": 16,
      "name": "floatBufferViews",
      "target": 34962
    }
  ],
  "buffers": [
    {
      "byteLength": 1496664,
      "uri": "scene.bin"
    }
  ],
  "images": [
    {
      "uri": "textures/Mirror_1024.001_baseColor.jpeg"
    },
    {
      "uri": "textures/Mirror_1024.001_metallicRoughness.png"
    },
    {
      "uri": "textures/Mirror_1024.001_normal.jpeg"
    },
    {
      "uri": "textures/HandDryer_1024.001_baseColor.jpeg"
    },
    {
      "uri": "textures/HandDryer_1024.001_metallicRoughness.png"
    },
    {
      "uri": "textures/HandDryer_1024.001_normal.jpeg"
    },
    {
      "uri": "textures/Sink_1024.001_baseColor.jpeg"
    },
    {
      "uri": "textures/Sink_1024.001_metallicRoughness.png"
    },
    {
      "uri": "textures/Sink_1024.001_normal.jpeg"
    },
    {
      "uri": "textures/M_Toilet_2048.001_baseColor.jpeg"
    },
    {
      "uri": "textures/M_Toilet_2048.001_metallicRoughness.png"
    },
    {
      "uri": "textures/M_Toilet_2048.001_normal.jpeg"
    }
  ],
  "materials": [
    {
      "doubleSided": true,
      "name": "Mirror_1024.001",
      "normalTexture": {
        "index": 2,
        "texCoord": 2
      },
      "pbrMetallicRoughness": {
        "baseColorTexture": {
          "index": 0
        },
        "metallicRoughnessTexture": {
          "index": 1,
          "texCoord": 1
        }
      }
    },
    {
      "doubleSided": true,
      "name": "HandDryer_1024.001",
      "normalTexture": {
        "index": 5,
        "texCoord": 2
      },
      "pbrMetallicRoughness": {
        "baseColorTexture": {
          "index": 3
        },
        "metallicRoughnessTexture": {
          "index": 4,
          "texCoord": 1
        }
      }
    },
    {
      "doubleSided": true,
      "name": "Sink_1024.001",
      "normalTexture": {
        "index": 8
      },
      "pbrMetallicRoughness": {
        "baseColorTexture": {
          "index": 6
        },
        "metallicRoughnessTexture": {
          "index": 7
        }
      }
    },
    {
      "doubleSided": true,
      "name": "M_Toilet_2048.001",
      "normalTexture": {
        "index": 11
      },
      "pbrMetallicRoughness": {
        "baseColorTexture": {
          "index": 9
        },
        "metallicRoughnessTexture": {
          "index": 10
        }
      }
    }
  ],
  "meshes": [
    {
      "name": "Object_0",
      "primitives": [
        {
          "attributes": {
            "NORMAL": 1,
            "POSITION": 0,
            "TANGENT": 2,
            "TEXCOORD_0": 3,
            "TEXCOORD_1": 4,
            "TEXCOORD_2": 5,
            "TEXCOORD_3": 6
          },
          "indices": 7,
          "material": 0,
          "mode": 4
        }
      ]
    },
    {
      "name": "Object_1",
      "primitives": [
        {
          "attributes": {
            "NORMAL": 9,
            "POSITION": 8,
            "TANGENT": 10,
            "TEXCOORD_0": 11,
            "TEXCOORD_1": 12,
            "TEXCOORD_2": 13,
            "TEXCOORD_3": 14
          },
          "indices": 15,
          "material": 0,
          "mode": 4
        }
      ]
    },
    {
      "name": "Object_2",
      "primitives": [
        {
          "attributes": {
            "NORMAL": 17,
            "POSITION": 16,
            "TANGENT": 18,
            "TEXCOORD_0": 19,
            "TEXCOORD_1": 20,
            "TEXCOORD_2": 21,
            "TEXCOORD_3": 22
          },
          "indices": 23,
          "material": 0,
          "mode": 4
        }
      ]
    },
    {
      "name": "Object_3",
      "primitives": [
        {
          "attributes": {
            "NORMAL": 25,
            "POSITION": 24,
            "TANGENT": 26,
            "TEXCOORD_0": 27,
            "TEXCOORD_1": 28,
            "TEXCOORD_2": 29,
            "TEXCOORD_3": 30
          },
          "indices": 31,
          "material": 0,
          "mode": 4
        }
      ]
    },
    {
      "name": "Object_4",
      "primitives": [
        {
          "attributes": {
            "NORMAL": 33,
            "POSITION": 32,
            "TANGENT": 34,
            "TEXCOORD_0": 35,
            "TEXCOORD_1": 36,
            "TEXCOORD_2": 37,
            "TEXCOORD_3": 38
          },
          "indices": 39,
          "material": 0,
          "mode": 4
        }
      ]
    },
    {
      "name": "Object_5",
      "primitives": [
        {
          "attributes": {
            "NORMAL": 41,
            "POSITION": 40,
            "TANGENT": 42,
            "TEXCOORD_0": 43,
            "TEXCOORD_1": 44,
            "TEXCOORD_2": 45,
            "TEXCOORD_3": 46
          },
          "indices": 47,
          "material": 1,
          "mode": 4
        }
      ]
    },
    {
      "name": "Object_6",
      "primitives": [
        {
          "attributes": {
            "NORMAL": 49,
            "POSITION": 48,
            "TANGENT": 50,
            "TEXCOORD_0": 51,
            "TEXCOORD_1": 52,
            "TEXCOORD_2": 53,
            "TEXCOORD_3": 54
          },
          "indices": 55,
          "material": 2,
          "mode": 4
        }
      ]
    },
    {
      "name": "Object_7",
      "primitives": [
        {
          "attributes": {
            "NORMAL": 57,
            "POSITION": 56,
            "TANGENT": 58,
            "TEXCOORD_0": 59,
            "TEXCOORD_1": 60,
            "TEXCOORD_2": 61,
            "TEXCOORD_3": 62
          },
          "indices": 63,
          "material": 2,
          "mode": 4
        }
      ]
    },
    {
      "name": "Object_8",
      "primitives": [
        {
          "attributes": {
            "NORMAL": 65,
            "POSITION": 64,
            "TANGENT": 66,
            "TEXCOORD_0": 67,
            "TEXCOORD_1": 68,
            "TEXCOORD_2": 69,
            "TEXCOORD_3": 70
          },
          "indices": 71,
          "material": 2,
          "mode": 4
        }
      ]
    },
    {
      "name": "Object_9",
      "primitives": [
        {
          "attributes": {
            "NORMAL": 73,
            "POSITION": 72,
            "TANGENT": 74,
            "TEXCOORD_0": 75,
            "TEXCOORD_1": 76,
            "TEXCOORD_2": 77,
            "TEXCOORD_3": 78
          },
          "indices": 79,
          "material": 2,
          "mode": 4
        }
      ]
    },
    {
      "name": "Object_10",
      "primitives": [
        {
          "attributes": {
            "NORMAL": 81,
            "POSITION": 80,
            "TANGENT": 82,
            "TEXCOORD_0": 83,
            "TEXCOORD_1": 84,
            "TEXCOORD_2": 85,
            "TEXCOORD_3": 86
          },
          "indices": 87,
          "material": 2,
          "mode": 4
        }
      ]
    },
    {
      "name": "Object_11",
      "primitives": [
        {
          "attributes": {
            "NORMAL": 89,
            "POSITION": 88,
            "TANGENT": 90,
            "TEXCOORD_0": 91,
            "TEXCOORD_1": 92,
            "TEXCOORD_2": 93,
            "TEXCOORD_3": 94
          },
          "indices": 95,
          "material": 2,
          "mode": 4
        }
      ]
    },
    {
      "name": "Object_12",
      "primitives": [
        {
          "attributes": {
            "NORMAL": 97,
            "POSITION": 96,
            "TANGENT": 98,
            "TEXCOORD_0": 99,
            "TEXCOORD_1": 100,
            "TEXCOORD_2": 101,
            "TEXCOORD_3": 102
          },
          "indices": 103,
          "material": 1,
          "mode": 4
        }
      ]
    },
    {
      "name": "Object_13",
      "primitives": [
        {
          "attributes": {
            "NORMAL": 105,
            "POSITION": 104,
            "TANGENT": 106,
            "TEXCOORD_0": 107,
            "TEXCOORD_1": 108,
            "TEXCOORD_2": 109,
            "TEXCOORD_3": 110
          },
          "indices": 111,
          "material": 1,
          "mode": 4
        }
      ]
    },
    {
      "name": "Object_14",
      "primitives": [
        {
          "attributes": {
            "NORMAL": 113,
            "POSITION": 112,
            "TANGENT": 114,
            "TEXCOORD_0": 115,
            "TEXCOORD_1": 116,
            "TEXCOORD_2": 117,
            "TEXCOORD_3": 118
          },
          "indices": 119,
          "material": 3,
          "mode": 4
        }
      ]
    },
    {
      "name": "Object_15",
      "primitives": [
        {
          "attributes": {
            "NORMAL": 121,
            "POSITION": 120,
            "TANGENT": 122,
            "TEXCOORD_0": 123,
            "TEXCOORD_1": 124,
            "TEXCOORD_2": 125,
            "TEXCOORD_3": 126
          },
          "indices": 127,
          "material": 3,
          "mode": 4
        }
      ]
    },
    {
      "name": "Object_16",
      "primitives": [
        {
          "attributes": {
            "NORMAL": 129,
            "POSITION": 128,
            "TANGENT": 130,
            "TEXCOORD_0": 131,
            "TEXCOORD_1": 132,
            "TEXCOORD_2": 133,
            "TEXCOORD_3": 134
          },
          "indices": 135,
          "material": 3,
          "mode": 4
        }
      ]
    },
    {
      "name": "Object_17",
      "primitives": [
        {
          "attributes": {
            "NORMAL": 137,
            "POSITION": 136,
            "TANGENT": 138,
            "TEXCOORD_0": 139,
            "TEXCOORD_1": 140,
            "TEXCOORD_2": 141,
            "TEXCOORD_3": 142
          },
          "indices": 143,
          "material": 3,
          "mode": 4
        }
      ]
    },
    {
      "name": "Object_18",
      "primitives": [
        {
          "attributes": {
            "NORMAL": 145,
            "POSITION": 144,
            "TANGENT": 146,
            "TEXCOORD_0": 147,
            "TEXCOORD_1": 148,
            "TEXCOORD_2": 149,
            "TEXCOORD_3": 150
          },
          "indices": 151,
          "material": 3,
          "mode": 4
        }
      ]
    },
    {
      "name": "Object_19",
      "primitives": [
        {
          "attributes": {
            "NORMAL": 153,
            "POSITION": 152,
            "TANGENT": 154,
            "TEXCOORD_0": 155,
            "TEXCOORD_1": 156,
            "TEXCOORD_2": 157,
            "TEXCOORD_3": 158
          },
          "indices": 159,
          "material": 3,
          "mode": 4
        }
      ]
    },
    {
      "name": "Object_20",
      "primitives": [
        {
          "attributes": {
            "NORMAL": 161,
            "POSITION": 160,
            "TANGENT": 162,
            "TEXCOORD_0": 163,
            "TEXCOORD_1": 164,
            "TEXCOORD_2": 165,
            "TEXCOORD_3": 166
          },
          "indices": 167,
          "material": 3,
          "mode": 4
        }
      ]
    },
    {
      "name": "Object_21",
      "primitives": [
        {
          "attributes": {
            "NORMAL": 169,
            "POSITION": 168,
            "TANGENT": 170,
            "TEXCOORD_0": 171,
            "TEXCOORD_1": 172,
            "TEXCOORD_2": 173,
            "TEXCOORD_3": 174
          },
          "indices": 175,
          "material": 3,
          "mode": 4
        }
      ]
    },
    {
      "name": "Object_22",
      "primitives": [
        {
          "attributes": {
            "NORMAL": 177,
            "POSITION": 176,
            "TANGENT": 178,
            "TEXCOORD_0": 179,
            "TEXCOORD_1": 180,
            "TEXCOORD_2": 181,
            "TEXCOORD_3": 182
          },
          "indices": 183,
          "material": 3,
          "mode": 4
        }
      ]
    },
    {
      "name": "Object_23",
      "primitives": [
        {
          "attributes": {
            "NORMAL": 185,
            "POSITION": 184,
            "TANGENT": 186,
            "TEXCOORD_0": 187,
            "TEXCOORD_1": 188,
            "TEXCOORD_2": 189,
            "TEXCOORD_3": 190
          },
          "indices": 191,
          "material": 3,
          "mode": 4
        }
      ]
    },
    {
      "name": "Object_24",
      "primitives": [
        {
          "attributes": {
            "NORMAL": 193,
            "POSITION": 192,
            "TANGENT": 194,
            "TEXCOORD_0": 195,
            "TEXCOORD_1": 196,
            "TEXCOORD_2": 197,
            "TEXCOORD_3": 198
          },
          "indices": 199,
          "material": 3,
          "mode": 4
        }
      ]
    },
    {
      "name": "Object_25",
      "primitives": [
        {
          "attributes": {
            "NORMAL": 201,
            "POSITION": 200,
            "TANGENT": 202,
            "TEXCOORD_0": 203,
            "TEXCOORD_1": 204,
            "TEXCOORD_2": 205,
            "TEXCOORD_3": 206
          },
          "indices": 207,
          "material": 3,
          "mode": 4
        }
      ]
    },
    {
      "name": "Object_26",
      "primitives": [
        {
          "attributes": {
            "NORMAL": 209,
            "POSITION": 208,
            "TANGENT": 210,
            "TEXCOORD_0": 211,
            "TEXCOORD_1": 212,
            "TEXCOORD_2": 213,
            "TEXCOORD_3": 214
          },
          "indices": 215,
          "material": 3,
          "mode": 4
        }
      ]
    },
    {
      "name": "Object_27",
      "primitives": [
        {
          "attributes": {
            "NORMAL": 217,
            "POSITION": 216,
            "TANGENT": 218,
            "TEXCOORD_0": 219,
            "TEXCOORD_1": 220,
            "TEXCOORD_2": 221,
            "TEXCOORD_3": 222
          },
          "indices": 223,
          "material": 3,
          "mode": 4
        }
      ]
    }
  ],
  "nodes": [
    {
      "children": [
        1
      ],
      "matrix": [
        1.0,
        0.0,
        0.0,
        0.0,
        0.0,
        2.220446049250313e-16,
        -1.0,
        0.0,
        0.0,
        1.0,
        2.220446049250313e-16,
        0.0,
        0.0,
        0.0,
        0.0,
        1.0
      ],
      "name": "Sketchfab_model"
    },
    {
      "children": [
        2
      ],
      "name": "root"
    },
    {
      "children": [
        3,
        13,
        15,
        27,
        29,
        31,
        35
      ],
      "matrix": [
        1.0,
        0.0,
        0.0,
        0.0,
        0.0,
        2.220446049250313e-16,
        1.0,
        0.0,
        0.0,
        -1.0,
        2.220446049250313e-16,
        0.0,
        0.0,
        0.0,
        0.0,
        1.0
      ],
      "name": "GLTF_SceneRootNode"
    },
    {
      "children": [
        4,
        5,
        11
      ],
      "matrix": [
        1.0,
        0.0,
        0.0,
        0.0,
        0.0,
        1.0,
        0.0,
        0.0,
        0.0,
        0.0,
        1.0,
        0.0,
        -0.4525802731513977,
        1.627029538154602,
        -0.5077331066131592,
        1.0
      ],
      "name": "MirrorCabinet_LP_4"
    },
    {
      "mesh": 0,
      "name": "Object_4"
    },
    {
      "children": [
        6,
        7,
        9
      ],
      "matrix": [
        0.9547282481994204,
        0.0,
        -0.2974793641415585,
        0.0,
        0.0,
        1.0,
        0.0,
        0.0,
        0.2974793641415585,
        0.0,
        0.9547282481994204,
        0.0,
        0.06384384632110596,
        0.0,
        -0.15916979312896729,
        1.0
      ],
      "name": "MirrorCabinet_Door_LP_2"
    },
    {
      "mesh": 1,
      "name": "Object_6"
    },
    {
      "children": [
        8
      ],
      "name": "MirrorCabinet_Mirror_LP_0"
    },
    {
      "mesh": 2,
      "name": "Object_8"
    },
    {
      "children": [
        10
      ],
      "matrix": [
        1.0,
        0.0,
        0.0,
        0.0,
        0.0,
        1.0,
        0.0,
        0.0,
        0.0,
        0.0,
        1.0,
        0.0,
        -0.009331956505775452,
        0.0,
        0.16043704748153687,
        1.0
      ],
      "name": "MirrorCabinet_MirrorHolder_LP_1"
    },
    {
      "mesh": 3,
      "name": "Object_10"
    },
    {
      "children": [
        12
      ],
      "name": "MirrorCabinet_Shelf_LP_3"
    },
    {
      "mesh": 4,
      "name": "Object_12"
    },
    {
      "children": [
        14
      ],
      "matrix": [
        1.0,
        0.0,
        0.0,
        0.0,
        0.0,
        1.0,
        0.0,
        0.0,
        0.0,
        0.0,
        1.0,
        0.0,
        -0.44633233547210693,
        1.514302372932434,
        -0.05844894051551819,
        1.0
      ],
      "name": "HandDryer_LP_5"
    },
    {
      "mesh": 5,
      "name": "Object_14"
    },
    {
      "children": [
        16,
        17,
        19,
        21,
        23
      ],
      "matrix": [
        1.0,
        0.0,
        0.0,
        0.0,
        0.0,
        1.0,
        0.0,
        0.0,
        0.0,
        0.0,
        1.0,
        0.0,
        -0.3499995470046997,
        0.8669003844261169,
        -0.5131906270980835,
        1.0
      ],
      "name": "BathroomSink_LP_11"
    },
    {
      "mesh": 6,
      "name": "Object_16"
    },
    {
      "children": [
        18
      ],
      "matrix": [
        0.0,
        0.0,
        -1.0,
        0.0,
        1.0,
        0.0,
        0.0,
        0.0,
        0.0,
        -1.0,
        0.0,
        0.0,
        -0.08762156963348389,
        0.21137183904647827,
        0.0,
        1.0
      ],
      "name": "BathroomSink_Faucet_LP_6"
    },
    {
      "mesh": 7,
      "name": "Object_18"
    },
    {
      "children": [
        20
      ],
      "matrix": [
        0.0,
        0.0,
        -0.7011882066726685,
        0.0,
        0.7011882066726685,
        0.0,
        0.0,
        0.0,
        0.0,
        -0.7011882066726685,
        0.0,
        0.0,
        -0.08762156963348389,
        0.22247785329818726,
        0.0,
        1.0
      ],
      "name": "BathroomSink_Tap_LP_7"
    },
    {
      "mesh": 8,
      "name": "Object_20"
    },
    {
      "children": [
        22
      ],
      "matrix": [
        1.0,
        0.0,
        0.0,
        0.0,
        0.0,
        1.0,
        0.0,
        0.0,
        0.0,
        0.0,
        1.0,
        0.0,
        0.005643486976623535,
        -0.001326143741607666,
        0.0,
        1.0
      ],
      "name": "Sink_Drainhole_LP_8"
    },
    {
      "mesh": 9,
      "name": "Object_22"
    },
    {
      "children": [
        24,
        25
      ],
      "matrix": [
        0.6427875374342611,
        0.0,
        -0.7660445037458322,
        0.0,
        0.0,
        1.0,
        0.0,
        0.0,
        0.7660445037458322,
        0.0,
        0.6427875374342611,
        0.0,
        0.005643486976623535,
        -0.001326143741607666,
        0.0,
        1.0
      ],
      "name": "Sink_Pipes_LP_10"
    },
    {
      "mesh": 10,
      "name": "Object_24"
    },
    {
      "children": [
        26
      ],
      "matrix": [
        0.9452294048646619,
        0.0,
        0.32640675878295944,
        0.0,
        -0.0,
        1.0,
        0.0,
        0.0,
        -0.32640675878295944,
        -0.0,
        0.9452294048646619,
        0.0,
        -0.1641191691160202,
        -0.3121335506439209,
        0.0,
        1.0
      ],
      "name": "Sink_Pipes_Floor_LP_9"
    },
    {
      "mesh": 11,
      "name": "Object_26"
    },
    {
      "children": [
        28
      ],
      "matrix": [
        -8.940697071579962e-08,
        -2.9802316170446375e-08,
        -0.9999999999999956,
        0.0,
        0.9999999999999849,
        -1.4901161549119024e-07,
        -8.940696627490752e-08,
        0.0,
        -1.4901161282665498e-07,
        -0.9999999999999885,
        2.980232949312267e-08,
        0.0,
        -0.5470049381256104,
        1.3162593841552734,
        -1.1584259271621704,
        1.0
      ],
      "name": "TowelHook_LP_12"
    },
    {
      "mesh": 12,
      "name": "Object_28"
    },
    {
      "children": [
        30
      ],
      "matrix": [
        -2.9802322387695313e-08,
        2.980232327587373e-08,
        -0.9999999999999991,
        0.0,
        0.9999999999999991,
        -2.9802322387695313e-08,
        -2.980232327587373e-08,
        0.0,
        -2.980232327587373e-08,
        -0.9999999999999991,
        -2.9802322387695313e-08,
        0.0,
        -0.5187972784042358,
        1.2966952323913574,
        -0.9299446940422058,
        1.0
      ],
      "name": "Sign_LP_13"
    },
    {
      "mesh": 13,
      "name": "Object_30"
    },
    {
      "children": [
        32,
        33
      ],
      "matrix": [
        0.5472080814189559,
        0.0,
        -0.83699660431198,
        0.0,
        0.0,
        1.0,
        -0.0,
        0.0,
        0.83699660431198,
        0.0,
        0.5472080814189559,
        0.0,
        -0.26402148604393005,
        0.028016390278935432,
        -0.6844579577445984,
        1.0
      ],
      "name": "PlasticBucket_Simple_LP_15"
    },
    {
      "mesh": 14,
      "name": "Object_32"
    },
    {
      "children": [
        34
      ],
      "matrix": [
        1.0,
        0.0,
        0.0,
        0.0,
        0.0,
        0.8660254016890687,
        0.5000000036292872,
        0.0,
        0.0,
        -0.5000000036292872,
        0.8660254016890687,
        0.0,
        0.0,
        0.24062246084213257,
        -3.5762786865234375e-06,
        1.0
      ],
      "name": "PlasticBucket_Simple_Handle_LP_14"
    },
    {
      "mesh": 15,
      "name": "Object_34"
    },
    {
      "children": [
        36,
        37,
        39,
        41,
        51,
        53
      ],
      "matrix": [
        1.0211020324301285,
        0.0,
        0.15207669400236065,
        0.0,
        -0.0,
        1.0323646068572998,
        0.0,
        0.0,
        -0.15207669400236065,
        0.0,
        1.0211020324301285,
        0.0,
        -0.26738643646240234,
        0.0028694365173578262,
        -1.0972119569778442,
        1.0
      ],
      "name": "Toilet_Base_LP_27"
    },
    {
      "mesh": 16,
      "name": "Object_36"
    },
    {
      "children": [
        38
      ],
      "name": "Toilet_Back_LP_16"
    },
    {
      "mesh": 17,
      "name": "Object_38"
    },
    {
      "children": [
        40
      ],
      "name": "Toilet_Inside_LP_17"
    },
    {
      "mesh": 18,
      "name": "Object_40"
    },
    {
      "children": [
        42,
        43,
        45,
        47,
        49
      ],
      "matrix": [
        0.0978324933466973,
        0.9952028955170742,
        0.0,
        0.0,
        -0.9952028955170742,
        0.0978324933466973,
        0.0,
        0.0,
        0.0,
        0.0,
        1.0,
        0.0,
        -0.23195692896842957,
        0.4124188721179962,
        0.0,
        1.0
      ],
      "name": "Toilet_Lid_LP_22"
    },
    {
      "mesh": 19,
      "name": "Object_42"
    },
    {
      "children": [
        44
      ],
      "matrix": [
        1.0,
        0.0,
        0.0,
        0.0,
        0.0,
        1.0,
        0.0,
        0.0,
        0.0,
        0.0,
        1.0,
        0.0,
        -0.013660535216331482,
        0.005497634410858154,
        0.0,
        1.0
      ],
      "name": "Toilet_Lid1_LP_18"
    },
    {
      "mesh": 20,
      "name": "Object_44"
    },
    {
      "children": [
        46
      ],
      "matrix": [
        1.0,
        0.0,
        0.0,
        0.0,
        0.0,
        1.0,
        0.0,
        0.0,
        0.0,
        0.0,
        1.0,
        0.0,
        0.0016558468341827393,
        0.004589498043060303,
        0.0,
        1.0
      ],
      "name": "Toilet_Lid2_LP_19"
    },
    {
      "mesh": 21,
      "name": "Object_46"
    },
    {
      "children": [
        48
      ],
      "name": "Toilet_Lid3_LP_20"
    },
    {
      "mesh": 22,
      "name": "Object_48"
    },
    {
      "children": [
        50
      ],
      "name": "Toilet_Lid4_LP_21"
    },
    {
      "mesh": 23,
      "name": "Object_50"
    },
    {
      "children": [
        52
      ],
      "name": "Toilet_Rubber_LP_23"
    },
    {
      "mesh": 24,
      "name": "Object_52"
    },
    {
      "children": [
        54,
        55,
        57
      ],
      "matrix": [
        0.28279519578674917,
        0.9591803152900577,
        0.0,
        0.0,
        -0.9591803152900577,
        0.28279519578674917,
        0.0,
        0.0,
        0.0,
        0.0,
        1.0,
        0.0,
        -0.19719603657722473,
        0.4085824191570282,
        -0.0001169443130493164,
        1.0
      ],
      "name": "Toilet_Seat_LP_26"
    },
    {
      "mesh": 25,
      "name": "Object_54"
    },
    {
      "children": [
        56
      ],
      "matrix": [
        1.0,
        0.0,
        0.0,
        0.0,
        0.0,
        1.0,
        0.0,
        0.0,
        0.0,
        0.0,
        1.4166492223739624,
        0.0,
        0.0,
        0.0,
        0.0,
        1.0
      ],
      "name": "Toilet_Lid5_LP_24"
    },
    {
      "mesh": 26,
      "name": "Object_56"
    },
    {
      "children": [
        58
      ],
      "matrix": [
        -3.529727549452922e-07,
        -0.9686501622199355,
        4.99805358029677e-08,
        0.0,
        0.8290747796770279,
        -2.7626557475760057e-07,
        0.5009173050237393,
        0.0,
        -0.5009172433770839,
        2.2531120575390078e-07,
        0.829074677644967,
        0.0,
        0.08676967024803162,
        -0.01988232135772705,
        0.1158553957939148,
        1.0
      ],
      "name": "Toilet_Seat_Sup_LP_25"
    },
    {
      "mesh": 27,
      "name": "Object_58"
    }
  ],
  "samplers": [
    {
      "magFilter": 9729,
      "minFilter": 9987,
      "wrapS": 10497,
      "wrapT": 10497
    }
  ],
  "scene": 0,
  "scenes": [
    {
      "name": "Sketchfab_Scene",
      "nodes": [
        0
      ]
    }
  ],
  "textures": [
    {
      "sampler": 0,
      "source": 0
    },
    {
      "sampler": 0,
      "source": 1
    },
    {
      "sampler": 0,
      "source": 2
    },
    {
      "sampler": 0,
      "source": 3
    },
    {
      "sampler": 0,
      "source": 4
    },
    {
      "sampler": 0,
      "source": 5
    },
    {
      "sampler": 0,
      "source": 6
    },
    {
      "sampler": 0,
      "source": 7
    },
    {
      "sampler": 0,
      "source": 8
    },
    {
      "sampler": 0,
      "source": 9
    },
    {
      "sampler": 0,
      "source": 10
    },
    {
      "sampler": 0,
      "source": 11
    }
  ]
}
