{
  "accessors": [
    {
      "bufferView": 2,
      "componentType": 5126,
      "count": 492,
      "max": [
        1.0999996662139893,
        0.051688626408576965,
        0.9959690570831299
      ],
      "min": [
        -0.0021829605102539063,
        -5.513429641723633e-07,
        -0.9959691762924194
      ],
      "type": "VEC3"
    },
    {
      "bufferView": 2,
      "byteOffset": 5904,
      "componentType": 5126,
      "count": 492,
      "max": [
        1.0,
        1.0,
        1.0
      ],
      "min": [
        -1.0,
        -1.0,
        -1.0
      ],
      "type": "VEC3"
    },
    {
      "bufferView": 3,
      "componentType": 5126,
      "count": 492,
      "max": [
        1.0,
        1.0,
        0.00025945063680410385,
        1.0
      ],
      "min": [
        -1.0,
        -1.0,
        -0.00021390069741755724,
        1.0
      ],
      "type": "VEC4"
    },
    {
      "bufferView": 1,
      "componentType": 5126,
      "count": 492,
      "max": [
        0.9946755766868591,
        0.99919593334198
      ],
      "min": [
        0.0008041390683501959,
        0.0008041390683501959
      ],
      "type": "VEC2"
    },
    {
      "bufferView": 0,
      "componentType": 5125,
      "count": 894,
      "type": "SCALAR"
    },
    {
      "bufferView": 2,
      "byteOffset": 11808,
      "componentType": 5126,
      "count": 334,
      "max": [
        0.9558106064796448,
        0.04779818654060364,
        0.8359948396682739
      ],
      "min": [
        0.1441912055015564,
        0.0038898885250091553,
        -0.8359947800636292
      ],
      "type": "VEC3"
    },
    {
      "bufferView": 2,
      "byteOffset": 15816,
      "componentType": 5126,
      "count": 334,
      "max": [
        0.28639596700668335,
        1.0,
        0.28639495372772217
      ],
      "min": [
        -0.2863956391811371,
        -1.0,
        -0.28639450669288635
      ],
      "type": "VEC3"
    },
    {
      "bufferView": 3,
      "byteOffset": 7872,
      "componentType": 5126,
      "count": 334,
      "max": [
        1.0,
        0.28639596700668335,
        2.416068673483096e-05,
        1.0
      ],
      "min": [
        -1.0,
        -0.2863956093788147,
        -1.0,
        1.0
      ],
      "type": "VEC4"
    },
    {
      "bufferView": 1,
      "byteOffset": 3936,
      "componentType": 5126,
      "count": 334,
      "max": [
        0.9959900975227356,
        0.9943621754646301
      ],
      "min": [
        0.006043910980224609,
        0.01983492821455002
      ],
      "type": "VEC2"
    },
    {
      "bufferView": 0,
      "byteOffset": 3576,
      "componentType": 5125,
      "count": 360,
      "type": "SCALAR"
    },
    {
      "bufferView": 2,
      "byteOffset": 19824,
      "componentType": 5126,
      "count": 1102,
      "max": [
        1.0535240173339844,
        0.10204057395458221,
        -0.04441404342651367
      ],
      "min": [
        0.9981046319007874,
        -0.050352975726127625,
        -0.26502394676208496
      ],
      "type": "VEC3"
    },
    {
      "bufferView": 2,
      "byteOffset": 33048,
      "componentType": 5126,
      "count": 1102,
      "max": [
        1.0,
        1.0,
        1.0
      ],
      "min": [
        -1.0,
        -1.0,
        -1.0
      ],
      "type": "VEC3"
    },
    {
      "bufferView": 3,
      "byteOffset": 13216,
      "componentType": 5126,
      "count": 1102,
      "max": [
        1.0,
        1.0,
        0.9569563269615173,
        1.0
      ],
      "min": [
        -1.0,
        -1.0,
        -0.7071085572242737,
        1.0
      ],
      "type": "VEC4"
    },
    {
      "bufferView": 1,
      "byteOffset": 6608,
      "componentType": 5126,
      "count": 1102,
      "max": [
        0.9849514365196228,
        0.9928051829338074
      ],
      "min": [
        0.010196883231401443,
        0.011276215314865112
      ],
      "type": "VEC2"
    },
    {
      "bufferView": 0,
      "byteOffset": 5016,
      "componentType": 5125,
      "count": 5148,
      "type": "SCALAR"
    },
    {
      "bufferView": 2,
      "byteOffset": 46272,
      "componentType": 5126,
      "count": 126,
      "max": [
        -0.5450698733329773,
        -0.050869859755039215,
        1.7556989192962646
      ],
      "min": [
        -0.554519534111023,
        -0.08828995376825333,
        0.2674269676208496
      ],
      "type": "VEC3"
    },
    {
      "bufferView": 2,
      "byteOffset": 47784,
      "componentType": 5126,
      "count": 126,
      "max": [
        1.0,
        1.0,
        1.0
      ],
      "min": [
        -0.951058566570282,
        -1.0,
        -1.0
      ],
      "type": "VEC3"
    },
    {
      "bufferView": 3,
      "byteOffset": 30848,
      "componentType": 5126,
      "count": 126,
      "max": [
        1.0,
        1.0,
        5.74200130358804e-05,
        1.0
      ],
      "min": [
        -1.0,
        -1.0,
        -7.379923044936731e-05,
        1.0
      ],
      "type": "VEC4"
    },
    {
      "bufferView": 1,
      "byteOffset": 15424,
      "componentType": 5126,
      "count": 126,
      "max": [
        0.40202823281288147,
        0.4893273413181305
      ],
      "min": [
        0.06663373112678528,
        0.0899859368801117
      ],
      "type": "VEC2"
    },
    {
      "bufferView": 0,
      "byteOffset": 25608,
      "componentType": 5125,
      "count": 234,
      "type": "SCALAR"
    },
    {
      "bufferView": 2,
      "byteOffset": 49296,
      "componentType": 5126,
      "count": 142,
      "max": [
        0.6546549797058105,
        0.09364328533411026,
        2.10787034034729
      ],
      "min": [
        -0.6546549797058105,
        -0.08427133411169052,
        1.7881393432617188e-07
      ],
      "type": "VEC3"
    },
    {
      "bufferView": 2,
      "byteOffset": 51000,
      "componentType": 5126,
      "count": 142,
      "max": [
        1.0,
        1.0,
        1.0
      ],
      "min": [
        -1.0,
        -1.0,
        -1.0
      ],
      "type": "VEC3"
    },
    {
      "bufferView": 3,
      "byteOffset": 32864,
      "componentType": 5126,
      "count": 142,
      "max": [
        1.0,
        1.0,
        1.0,
        1.0
      ],
      "min": [
        -1.0,
        -1.0,
        -0.0006990486872382462,
        1.0
      ],
      "type": "VEC4"
    },
    {
      "bufferView": 1,
      "byteOffset": 16432,
      "componentType": 5126,
      "count": 142,
      "max": [
        0.9982680082321167,
        0.9837086796760559
      ],
      "min": [
        0.0017320215702056885,
        0.006118896417319775
      ],
      "type": "VEC2"
    },
    {
      "bufferView": 0,
      "byteOffset": 26544,
      "componentType": 5125,
      "count": 228,
      "type": "SCALAR"
    }
  ],
  "asset": {
    "extras": {
      "author": "Pedro Silva (https://sketchfab.com/pxdrosilva)",
      "license": "CC-BY-4.0 (http://creativecommons.org/licenses/by/4.0/)",
      "source": "https://sketchfab.com/3d-models/wooden-door-872263fe766148b08a772ceaa80a7e65",
      "title": "Wooden Door"
    },
    "generator": "Sketchfab-12.66.0",
    "version": "2.0"
  },
  "bufferViews": [
    {
      "buffer": 0,
      "byteLength": 27456,
      "name": "floatBufferViews",
      "target": 34963
    },
    {
      "buffer": 0,
      "byteLength": 17568,
      "byteOffset": 27456,
      "byteStride": 8,
      "name": "floatBufferViews",
      "target": 34962
    },
    {
      "buffer": 0,
      "byteLength": 52704,
      "byteOffset": 45024,
      "byteStride": 12,
      "name": "floatBufferViews",
      "target": 34962
    },
    {
      "buffer": 0,
      "byteLength": 35136,
      "byteOffset": 97728,
      "byteStride": 16,
      "name": "floatBufferViews",
      "target": 34962
    }
  ],
  "buffers": [
    {
      "byteLength": 132864,
      "uri": "scene.bin"
    }
  ],
  "images": [
    {
      "uri": "textures/Door_baseColor.png"
    },
    {
      "uri": "textures/Door_metallicRoughness.png"
    },
    {
      "uri": "textures/Door_normal.png"
    },
    {
      "uri": "textures/DoorCenter_baseColor.png"
    },
    {
      "uri": "textures/DoorCenter_metallicRoughness.png"
    },
    {
      "uri": "textures/DoorCenter_normal.png"
    },
    {
      "uri": "textures/DoorHandle_baseColor.png"
    },
    {
      "uri": "textures/DoorHandle_metallicRoughness.png"
    },
    {
      "uri": "textures/DoorHandle_normal.png"
    },
    {
      "uri": "textures/DoorFrame_baseColor.png"
    },
    {
      "uri": "textures/DoorFrame_metallicRoughness.png"
    },
    {
      "uri": "textures/DoorFrame_normal.png"
    }
  ],
  "materials": [
    {
      "doubleSided": true,
      "name": "Door",
      "normalTexture": {
        "index": 2
      },
      "occlusionTexture": {
        "index": 1
      },
      "pbrMetallicRoughness": {
        "baseColorTexture": {
          "index": 0
        },
        "metallicRoughnessTexture": {
          "index": 1
        }
      }
    },
    {
      "doubleSided": true,
      "name": "DoorCenter",
      "normalTexture": {
        "index": 5
      },
      "occlusionTexture": {
        "index": 4
      },
      "pbrMetallicRoughness": {
        "baseColorTexture": {
          "index": 3
        },
        "metallicFactor": 0.0,
        "metallicRoughnessTexture": {
          "index": 4
        }
      }
    },
    {
      "doubleSided": true,
      "name": "DoorHandle",
      "normalTexture": {
        "index": 8
      },
      "occlusionTexture": {
        "index": 7
      },
      "pbrMetallicRoughness": {
        "baseColorTexture": {
          "index": 6
        },
        "metallicRoughnessTexture": {
          "index": 7
        }
      }
    },
    {
      "doubleSided": true,
      "name": "DoorFrame",
      "normalTexture": {
        "index": 11
      },
      "occlusionTexture": {
        "index": 10
      },
      "pbrMetallicRoughness": {
        "baseColorTexture": {
          "index": 9
        },
        "metallicRoughnessTexture": {
          "index": 10
        }
      }
    }
  ],
  "meshes": [
    {
      "name": "Door_Door_0",
      "primitives": [
        {
          "attributes": {
            "NORMAL": 1,
            "POSITION": 0,
            "TANGENT": 2,
            "TEXCOORD_0": 3
          },
          "indices": 4,
          "material": 0,
          "mode": 4
        }
      ]
    },
    {
      "name": "Door_DoorCenter_0",
      "primitives": [
        {
          "attributes": {
            "NORMAL": 6,
            "POSITION": 5,
            "TANGENT": 7,
            "TEXCOORD_0": 8
          },
          "indices": 9,
          "material": 1,
          "mode": 4
        }
      ]
    },
    {
      "name": "Door_DoorHandle_0",
      "primitives": [
        {
          "attributes": {
            "NORMAL": 11,
            "POSITION": 10,
            "TANGENT": 12,
            "TEXCOORD_0": 13
          },
          "indices": 14,
          "material": 2,
          "mode": 4
        }
      ]
    },
    {
      "name": "Frame_Door_0",
      "primitives": [
        {
          "attributes": {
            "NORMAL": 16,
            "POSITION": 15,
            "TANGENT": 17,
            "TEXCOORD_0": 18
          },
          "indices": 19,
          "material": 0,
          "mode": 4
        }
      ]
    },
    {
      "name": "Frame_DoorFrame_0",
      "primitives": [
        {
          "attributes": {
            "NORMAL": 21,
            "POSITION": 20,
            "TANGENT": 22,
            "TEXCOORD_0": 23
          },
          "indices": 24,
          "material": 3,
          "mode": 4
        }
      ]
    }
  ],
  "nodes": [
    {
      "children": [
        1
      ],
      "matrix": [
        1.0,
        0.0,
        0.0,
        0.0,
        0.0,
        2.220446049250313e-16,
        -1.0,
        0.0,
        0.0,
        1.0,
        2.220446049250313e-16,
        0.0,
        0.0,
        0.0,
        0.0,
        1.0
      ],
      "name": "Sketchfab_model"
    },
    {
      "children": [
        2
      ],
      "matrix": [
        0.009999999776482582,
        0.0,
        0.0,
        0.0,
        0.0,
        0.0,
        0.009999999776482582,
        0.0,
        0.0,
        -0.009999999776482582,
        0.0,
        0.0,
        0.0,
        0.0,
        0.0,
        1.0
      ],
      "name": "7ff3da3ac2164a3d832a580c7de1a72e.fbx"
    },
    {
      "children": [
        3,
        7
      ],
      "name": "RootNode"
    },
    {
      "children": [
        4,
        5,
        6
      ],
      "matrix": [
        -76.604443574147,
        2.883014810217688e-06,
        64.27876184787105,
        0.0,
        64.2787618478711,
        5.130653246698813e-06,
        76.60444357414683,
        0.0,
        -1.0894029289776341e-06,
        99.99999999999983,
        -5.783474610332462e-06,
        0.0,
        -54.99998474121094,
        100.40306854248047,
        8.427131652832031,
        1.0
      ],
      "name": "Door"
    },
    {
      "mesh": 0,
      "name": "Door_Door_0"
    },
    {
      "mesh": 1,
      "name": "Door_DoorCenter_0"
    },
    {
      "mesh": 2,
      "name": "Door_DoorHandle_0"
    },
    {
      "children": [
        8,
        9
      ],
      "matrix": [
        100.0,
        0.0,
        0.0,
        0.0,
        -0.0,
        -1.629206793918314e-05,
        -99.99999999999868,
        0.0,
        0.0,
        99.99999999999868,
        -1.629206793918314e-05,
        0.0,
        -2.3748725652694702e-06,
        0.0,
        0.0,
        1.0
      ],
      "name": "Frame"
    },
    {
      "mesh": 3,
      "name": "Frame_Door_0"
    },
    {
      "mesh": 4,
      "name": "Frame_DoorFrame_0"
    }
  ],
  "samplers": [
    {
      "magFilter": 9729,
      "minFilter": 9987,
      "wrapS": 10497,
      "wrapT": 10497
    }
  ],
  "scene": 0,
  "scenes": [
    {
      "name": "Sketchfab_Scene",
      "nodes": [
        0
      ]
    }
  ],
  "textures": [
    {
      "sampler": 0,
      "source": 0
    },
    {
      "sampler": 0,
      "source": 1
    },
    {
      "sampler": 0,
      "source": 2
    },
    {
      "sampler": 0,
      "source": 3
    },
    {
      "sampler": 0,
      "source": 4
    },
    {
      "sampler": 0,
      "source": 5
    },
    {
      "sampler": 0,
      "source": 6
    },
    {
      "sampler": 0,
      "source": 7
    },
    {
      "sampler": 0,
      "source": 8
    },
    {
      "sampler": 0,
      "source": 9
    },
    {
      "sampler": 0,
      "source": 10
    },
    {
      "sampler": 0,
      "source": 11
    }
  ]
}
