{
  "accessors": [
    {
      "bufferView": 2,
      "componentType": 5126,
      "count": 6020,
      "max": [
        0.8956980109214783,
        3.3600854873657227,
        1.0331196784973145
      ],
      "min": [
        -0.8771719932556152,
        0.1773679256439209,
        -0.9420551061630249
      ],
      "type": "VEC3"
    },
    {
      "bufferView": 2,
      "byteOffset": 72240,
      "componentType": 5126,
      "count": 6020,
      "max": [
        0.99988853931427,
        0.7991747260093689,
        0.9994145631790161
      ],
      "min": [
        -0.9999414086341858,
        -0.8875941038131714,
        -0.9998885989189148
      ],
      "type": "VEC3"
    },
    {
      "bufferView": 1,
      "componentType": 5126,
      "count": 6020,
      "max": [
        1.0000721216201782,
        0.9944869875907898
      ],
      "min": [
        0.006224031560122967,
        0.010263025760650635
      ],
      "type": "VEC2"
    },
    {
      "bufferView": 0,
      "componentType": 5125,
      "count": 35136,
      "type": "SCALAR"
    },
    {
      "bufferView": 2,
      "byteOffset": 144480,
      "componentType": 5126,
      "count": 65532,
      "max": [
        0.7852619886398315,
        3.3960492610931396,
        0.27165770530700684
      ],
      "min": [
        -0.7556269764900208,
        2.3989484310150146,
        -0.9827474355697632
      ],
      "type": "VEC3"
    },
    {
      "bufferView": 2,
      "byteOffset": 930864,
      "componentType": 5126,
      "count": 65532,
      "max": [
        0.9999268651008606,
        0.9999268651008606,
        0.9995898008346558
      ],
      "min": [
        -0.9999951124191284,
        -0.9977878928184509,
        -0.9999732971191406
      ],
      "type": "VEC3"
    },
    {
      "bufferView": 1,
      "byteOffset": 48160,
      "componentType": 5126,
      "count": 65532,
      "max": [
        1.0,
        1.0
      ],
      "min": [
        0.0,
        0.0
      ],
      "type": "VEC2"
    },
    {
      "bufferView": 1,
      "byteOffset": 572416,
      "componentType": 5126,
      "count": 65532,
      "max": [
        1.0,
        1.0
      ],
      "min": [
        0.0,
        0.0
      ],
      "type": "VEC2"
    },
    {
      "bufferView": 1,
      "byteOffset": 1096672,
      "componentType": 5126,
      "count": 65532,
      "max": [
        1.0,
        1.0
      ],
      "min": [
        0.0,
        0.0
      ],
      "type": "VEC2"
    },
    {
      "bufferView": 0,
      "byteOffset": 140544,
      "componentType": 5125,
      "count": 179574,
      "type": "SCALAR"
    },
    {
      "bufferView": 2,
      "byteOffset": 1717248,
      "componentType": 5126,
      "count": 13721,
      "max": [
        0.8655650019645691,
        3.24883770942688,
        1.0079519748687744
      ],
      "min": [
        -0.829859733581543,
        0.0,
        -0.6974149942398071
      ],
      "type": "VEC3"
    },
    {
      "bufferView": 2,
      "byteOffset": 1881900,
      "componentType": 5126,
      "count": 13721,
      "max": [
        0.999618411064148,
        0.9897549748420715,
        0.9999436736106873
      ],
      "min": [
        -0.9998425245285034,
        -1.0,
        -0.9998167157173157
      ],
      "type": "VEC3"
    },
    {
      "bufferView": 1,
      "byteOffset": 1620928,
      "componentType": 5126,
      "count": 13721,
      "max": [
        1.0181100368499756,
        1.0
      ],
      "min": [
        0.0,
        -0.07775998115539551
      ],
      "type": "VEC2"
    },
    {
      "bufferView": 1,
      "byteOffset": 1730696,
      "componentType": 5126,
      "count": 13721,
      "max": [
        1.0181100368499756,
        1.0
      ],
      "min": [
        0.0,
        -0.07775998115539551
      ],
      "type": "VEC2"
    },
    {
      "bufferView": 1,
      "byteOffset": 1840464,
      "componentType": 5126,
      "count": 13721,
      "max": [
        1.0181100368499756,
        1.0
      ],
      "min": [
        0.0,
        -0.07775998115539551
      ],
      "type": "VEC2"
    },
    {
      "bufferView": 0,
      "byteOffset": 858840,
      "componentType": 5125,
      "count": 67530,
      "type": "SCALAR"
    },
    {
      "bufferView": 2,
      "byteOffset": 2046552,
      "componentType": 5126,
      "count": 6020,
      "max": [
        0.8862708806991577,
        3.1991806030273438,
        0.8861738443374634
      ],
      "min": [
        -0.8865991234779358,
        0.17736804485321045,
        -0.8853387832641602
      ],
      "type": "VEC3"
    },
    {
      "bufferView": 2,
      "byteOffset": 2118792,
      "componentType": 5126,
      "count": 6020,
      "max": [
        0.99988853931427,
        0.4951041042804718,
        0.9998885989189148
      ],
      "min": [
        -0.99988853931427,
        -0.6949461698532104,
        -0.9998885989189148
      ],
      "type": "VEC3"
    },
    {
      "bufferView": 1,
      "byteOffset": 1950232,
      "componentType": 5126,
      "count": 6020,
      "max": [
        1.0000721216201782,
        0.9944869875907898
      ],
      "min": [
        0.006224031560122967,
        0.010263025760650635
      ],
      "type": "VEC2"
    },
    {
      "bufferView": 0,
      "byteOffset": 1128960,
      "componentType": 5125,
      "count": 35136,
      "type": "SCALAR"
    },
    {
      "bufferView": 2,
      "byteOffset": 2191032,
      "componentType": 5126,
      "count": 65532,
      "max": [
        0.8561378717422485,
        3.232752799987793,
        0.8560638427734375
      ],
      "min": [
        -0.8564661145210266,
        0.0,
        -0.8552284240722656
      ],
      "type": "VEC3"
    },
    {
      "bufferView": 2,
      "byteOffset": 2977416,
      "componentType": 5126,
      "count": 65532,
      "max": [
        0.9999982714653015,
        1.0,
        0.9999255537986755
      ],
      "min": [
        -0.9999927878379822,
        -1.0,
        -0.9999814033508301
      ],
      "type": "VEC3"
    },
    {
      "bufferView": 1,
      "byteOffset": 1998392,
      "componentType": 5126,
      "count": 65532,
      "max": [
        1.0181100368499756,
        1.0
      ],
      "min": [
        0.0,
        -0.07775998115539551
      ],
      "type": "VEC2"
    },
    {
      "bufferView": 1,
      "byteOffset": 2522648,
      "componentType": 5126,
      "count": 65532,
      "max": [
        1.0181100368499756,
        1.0
      ],
      "min": [
        0.0,
        -0.07775998115539551
      ],
      "type": "VEC2"
    },
    {
      "bufferView": 1,
      "byteOffset": 3046904,
      "componentType": 5126,
      "count": 65532,
      "max": [
        1.0181100368499756,
        1.0
      ],
      "min": [
        0.0,
        -0.07775998115539551
      ],
      "type": "VEC2"
    },
    {
      "bufferView": 0,
      "byteOffset": 1269504,
      "componentType": 5125,
      "count": 202584,
      "type": "SCALAR"
    },
    {
      "bufferView": 2,
      "byteOffset": 3763800,
      "componentType": 5126,
      "count": 9307,
      "max": [
        0.8212698698043823,
        3.1603965759277344,
        0.8560638427734375
      ],
      "min": [
        -0.8331551551818848,
        0.03213310241699219,
        -0.8552284240722656
      ],
      "type": "VEC3"
    },
    {
      "bufferView": 2,
      "byteOffset": 3875484,
      "componentType": 5126,
      "count": 9307,
      "max": [
        0.9999927282333374,
        1.0,
        0.9999924898147583
      ],
      "min": [
        -0.9999352097511292,
        -1.0,
        -0.9999814033508301
      ],
      "type": "VEC3"
    },
    {
      "bufferView": 1,
      "byteOffset": 3571160,
      "componentType": 5126,
      "count": 9307,
      "max": [
        1.010599970817566,
        1.0
      ],
      "min": [
        0.0,
        -0.06672000885009766
      ],
      "type": "VEC2"
    },
    {
      "bufferView": 1,
      "byteOffset": 3645616,
      "componentType": 5126,
      "count": 9307,
      "max": [
        1.010599970817566,
        1.0
      ],
      "min": [
        0.0,
        -0.06672000885009766
      ],
      "type": "VEC2"
    },
    {
      "bufferView": 1,
      "byteOffset": 3720072,
      "componentType": 5126,
      "count": 9307,
      "max": [
        1.010599970817566,
        1.0
      ],
      "min": [
        0.0,
        -0.06672000885009766
      ],
      "type": "VEC2"
    },
    {
      "bufferView": 0,
      "byteOffset": 2079840,
      "componentType": 5125,
      "count": 44520,
      "type": "SCALAR"
    },
    {
      "bufferView": 2,
      "byteOffset": 3987168,
      "componentType": 5126,
      "count": 65534,
      "max": [
        50.79470443725586,
        192.11410522460938,
        50.79470443725586
      ],
      "min": [
        -50.79470443725586,
        0.16936998069286346,
        -50.79470443725586
      ],
      "type": "VEC3"
    },
    {
      "bufferView": 2,
      "byteOffset": 4773576,
      "componentType": 5126,
      "count": 65534,
      "max": [
        1.0,
        1.0,
        1.0
      ],
      "min": [
        -1.0,
        -1.0,
        -1.0
      ],
      "type": "VEC3"
    },
    {
      "bufferView": 1,
      "byteOffset": 3794528,
      "componentType": 5126,
      "count": 65534,
      "max": [
        1.0181100368499756,
        1.0777599811553955
      ],
      "min": [
        0.0,
        0.0
      ],
      "type": "VEC2"
    },
    {
      "bufferView": 0,
      "byteOffset": 2257920,
      "componentType": 5125,
      "count": 222438,
      "type": "SCALAR"
    },
    {
      "bufferView": 2,
      "byteOffset": 5559984,
      "componentType": 5126,
      "count": 7761,
      "max": [
        12.529709815979004,
        187.09580993652344,
        12.601110458374023
      ],
      "min": [
        -12.529709815979004,
        185.90023803710938,
        -27.399829864501953
      ],
      "type": "VEC3"
    },
    {
      "bufferView": 2,
      "byteOffset": 5653116,
      "componentType": 5126,
      "count": 7761,
      "max": [
        0.9559922814369202,
        0.20496608316898346,
        0.9806424379348755
      ],
      "min": [
        -0.9806836843490601,
        -1.0,
        -0.9454032778739929
      ],
      "type": "VEC3"
    },
    {
      "bufferView": 1,
      "byteOffset": 4318800,
      "componentType": 5126,
      "count": 7761,
      "max": [
        1.0,
        1.0
      ],
      "min": [
        0.0,
        0.0
      ],
      "type": "VEC2"
    },
    {
      "bufferView": 0,
      "byteOffset": 3147672,
      "componentType": 5125,
      "count": 24666,
      "type": "SCALAR"
    },
    {
      "bufferView": 2,
      "byteOffset": 5746248,
      "componentType": 5126,
      "count": 6020,
      "max": [
        52.58217239379883,
        190.12075805664063,
        52.582176208496094
      ],
      "min": [
        -52.58218002319336,
        10.700579643249512,
        -52.582176208496094
      ],
      "type": "VEC3"
    },
    {
      "bufferView": 2,
      "byteOffset": 5818488,
      "componentType": 5126,
      "count": 6020,
      "max": [
        1.0,
        0.49470800161361694,
        1.0
      ],
      "min": [
        -1.0,
        -0.694586455821991,
        -1.0
      ],
      "type": "VEC3"
    },
    {
      "bufferView": 1,
      "byteOffset": 4380888,
      "componentType": 5126,
      "count": 6020,
      "max": [
        1.00007164478302,
        0.989736795425415
      ],
      "min": [
        0.006224378943443298,
        0.005513221025466919
      ],
      "type": "VEC2"
    },
    {
      "bufferView": 0,
      "byteOffset": 3246336,
      "componentType": 5125,
      "count": 35136,
      "type": "SCALAR"
    },
    {
      "bufferView": 2,
      "byteOffset": 5890728,
      "componentType": 5126,
      "count": 65534,
      "max": [
        50.79470443725586,
        192.11410522460938,
        50.79470443725586
      ],
      "min": [
        -50.79470443725586,
        0.16936998069286346,
        -50.79470443725586
      ],
      "type": "VEC3"
    },
    {
      "bufferView": 2,
      "byteOffset": 6677136,
      "componentType": 5126,
      "count": 65534,
      "max": [
        1.0,
        1.0,
        1.0
      ],
      "min": [
        -1.0,
        -1.0,
        -1.0
      ],
      "type": "VEC3"
    },
    {
      "bufferView": 1,
      "byteOffset": 4429048,
      "componentType": 5126,
      "count": 65534,
      "max": [
        1.0181100368499756,
        1.0777599811553955
      ],
      "min": [
        0.0,
        0.0
      ],
      "type": "VEC2"
    },
    {
      "bufferView": 0,
      "byteOffset": 3386880,
      "componentType": 5125,
      "count": 222438,
      "type": "SCALAR"
    },
    {
      "bufferView": 2,
      "byteOffset": 7463544,
      "componentType": 5126,
      "count": 7761,
      "max": [
        12.529709815979004,
        187.09580993652344,
        12.601110458374023
      ],
      "min": [
        -12.529709815979004,
        185.90023803710938,
        -27.399829864501953
      ],
      "type": "VEC3"
    },
    {
      "bufferView": 2,
      "byteOffset": 7556676,
      "componentType": 5126,
      "count": 7761,
      "max": [
        0.9559922814369202,
        0.20496608316898346,
        0.9806424379348755
      ],
      "min": [
        -0.9806836843490601,
        -1.0,
        -0.9454032778739929
      ],
      "type": "VEC3"
    },
    {
      "bufferView": 1,
      "byteOffset": 4953320,
      "componentType": 5126,
      "count": 7761,
      "max": [
        1.0,
        1.0
      ],
      "min": [
        0.0,
        0.0
      ],
      "type": "VEC2"
    },
    {
      "bufferView": 0,
      "byteOffset": 4276632,
      "componentType": 5125,
      "count": 24666,
      "type": "SCALAR"
    },
    {
      "bufferView": 2,
      "byteOffset": 7649808,
      "componentType": 5126,
      "count": 6020,
      "max": [
        52.58217239379883,
        190.12075805664063,
        52.582176208496094
      ],
      "min": [
        -52.58218002319336,
        10.700579643249512,
        -52.582176208496094
      ],
      "type": "VEC3"
    },
    {
      "bufferView": 2,
      "byteOffset": 7722048,
      "componentType": 5126,
      "count": 6020,
      "max": [
        1.0,
        0.49470800161361694,
        1.0
      ],
      "min": [
        -1.0,
        -0.694586455821991,
        -1.0
      ],
      "type": "VEC3"
    },
    {
      "bufferView": 1,
      "byteOffset": 5015408,
      "componentType": 5126,
      "count": 6020,
      "max": [
        1.00007164478302,
        0.989736795425415
      ],
      "min": [
        0.006224378943443298,
        0.005513221025466919
      ],
      "type": "VEC2"
    },
    {
      "bufferView": 0,
      "byteOffset": 4375296,
      "componentType": 5125,
      "count": 35136,
      "type": "SCALAR"
    }
  ],
  "asset": {
    "extras": {
      "author": "FunctionalResearch_3D (https://sketchfab.com/FunctionalResearch)",
      "license": "CC-BY-4.0 (http://creativecommons.org/licenses/by/4.0/)",
      "source": "https://sketchfab.com/3d-models/beer-can-collection-d7afa2aa8f8f4a52bd96bb28da2f788b",
      "title": "Beer  Can Collection"
    },
    "generator": "Sketchfab-16.21.0",
    "version": "2.0"
  },
  "bufferViews": [
    {
      "buffer": 0,
      "byteLength": 4515840,
      "name": "floatBufferViews",
      "target": 34963
    },
    {
      "buffer": 0,
      "byteLength": 5063568,
      "byteOffset": 4515840,
      "byteStride": 8,
      "name": "floatBufferViews",
      "target": 34962
    },
    {
      "buffer": 0,
      "byteLength": 7794288,
      "byteOffset": 9579408,
      "byteStride": 12,
      "name": "floatBufferViews",
      "target": 34962
    }
  ],
  "buffers": [
    {
      "byteLength": 17373696,
      "uri": "scene.bin"
    }
  ],
  "extensionsUsed": [
    "KHR_materials_specular"
  ],
  "images": [
    {
      "uri": "textures/material_baseColor.png"
    },
    {
      "uri": "textures/material_metallicRoughness.png"
    },
    {
      "uri": "textures/material_specularf0.png"
    },
    {
      "uri": "textures/METAL.005_baseColor.png"
    },
    {
      "uri": "textures/METAL.005_metallicRoughness.png"
    },
    {
      "uri": "textures/METAL.005_specularf0.png"
    },
    {
      "uri": "textures/Stella_Artois_baseColor.png"
    },
    {
      "uri": "textures/Stella_Artois_metallicRoughness.png"
    },
    {
      "uri": "textures/Mat_3_baseColor.jpeg"
    },
    {
      "uri": "textures/Mat_3_metallicRoughness.png"
    }
  ],
  "materials": [
    {
      "doubleSided": true,
      "extensions": {
        "KHR_materials_specular": {
          "specularColorFactor": [
            1.0,
            1.0,
            1.0
          ],
          "specularFactor": 1.0,
          "specularTexture": {
            "index": 2
          }
        }
      },
      "name": "material",
      "pbrMetallicRoughness": {
        "baseColorTexture": {
          "index": 0
        },
        "metallicRoughnessTexture": {
          "index": 1
        }
      }
    },
    {
      "doubleSided": true,
      "extensions": {
        "KHR_materials_specular": {
          "specularColorFactor": [
            1.0,
            1.0,
            1.0
          ],
          "specularFactor": 1.0,
          "specularTexture": {
            "index": 5
          }
        }
      },
      "name": "METAL.005",
      "pbrMetallicRoughness": {
        "baseColorTexture": {
          "index": 3
        },
        "metallicRoughnessTexture": {
          "index": 4,
          "texCoord": 1
        }
      }
    },
    {
      "doubleSided": true,
      "name": "material.001",
      "pbrMetallicRoughness": {
        "baseColorTexture": {
          "index": 0
        },
        "metallicRoughnessTexture": {
          "index": 1
        }
      }
    },
    {
      "doubleSided": true,
      "extensions": {
        "KHR_materials_specular": {
          "specularColorFactor": [
            1.0,
            1.0,
            1.0
          ],
          "specularFactor": 1.0,
          "specularTexture": {
            "index": 5
          }
        }
      },
      "name": "METAL.001",
      "pbrMetallicRoughness": {
        "metallicRoughnessTexture": {
          "index": 4
        }
      }
    },
    {
      "doubleSided": true,
      "extensions": {
        "KHR_materials_specular": {
          "specularColorFactor": [
            1.0,
            1.0,
            1.0
          ],
          "specularFactor": 1.0,
          "specularTexture": {
            "index": 5
          }
        }
      },
      "name": "METAL",
      "pbrMetallicRoughness": {
        "baseColorTexture": {
          "index": 3
        },
        "metallicRoughnessTexture": {
          "index": 4
        }
      }
    },
    {
      "doubleSided": true,
      "name": "Stella_Artois",
      "pbrMetallicRoughness": {
        "baseColorTexture": {
          "index": 6
        },
        "metallicFactor": 0.659254,
        "metallicRoughnessTexture": {
          "index": 7
        }
      }
    },
    {
      "doubleSided": true,
      "extensions": {
        "KHR_materials_specular": {
          "specularColorFactor": [
            1.0,
            1.0,
            1.0
          ],
          "specularFactor": 1.0,
          "specularTexture": {
            "index": 2
          }
        }
      },
      "name": "Mat_3",
      "pbrMetallicRoughness": {
        "baseColorTexture": {
          "index": 8
        },
        "metallicRoughnessTexture": {
          "index": 9
        }
      }
    }
  ],
  "meshes": [
    {
      "name": "Object_0",
      "primitives": [
        {
          "attributes": {
            "NORMAL": 1,
            "POSITION": 0,
            "TEXCOORD_0": 2
          },
          "indices": 3,
          "material": 0,
          "mode": 4
        }
      ]
    },
    {
      "name": "Object_1",
      "primitives": [
        {
          "attributes": {
            "NORMAL": 5,
            "POSITION": 4,
            "TEXCOORD_0": 6,
            "TEXCOORD_1": 7,
            "TEXCOORD_2": 8
          },
          "indices": 9,
          "material": 1,
          "mode": 4
        }
      ]
    },
    {
      "name": "Object_2",
      "primitives": [
        {
          "attributes": {
            "NORMAL": 11,
            "POSITION": 10,
            "TEXCOORD_0": 12,
            "TEXCOORD_1": 13,
            "TEXCOORD_2": 14
          },
          "indices": 15,
          "material": 1,
          "mode": 4
        }
      ]
    },
    {
      "name": "Object_3",
      "primitives": [
        {
          "attributes": {
            "NORMAL": 17,
            "POSITION": 16,
            "TEXCOORD_0": 18
          },
          "indices": 19,
          "material": 2,
          "mode": 4
        }
      ]
    },
    {
      "name": "Object_4",
      "primitives": [
        {
          "attributes": {
            "NORMAL": 21,
            "POSITION": 20,
            "TEXCOORD_0": 22,
            "TEXCOORD_1": 23,
            "TEXCOORD_2": 24
          },
          "indices": 25,
          "material": 3,
          "mode": 4
        }
      ]
    },
    {
      "name": "Object_5",
      "primitives": [
        {
          "attributes": {
            "NORMAL": 27,
            "POSITION": 26,
            "TEXCOORD_0": 28,
            "TEXCOORD_1": 29,
            "TEXCOORD_2": 30
          },
          "indices": 31,
          "material": 3,
          "mode": 4
        }
      ]
    },
    {
      "name": "Object_6",
      "primitives": [
        {
          "attributes": {
            "NORMAL": 33,
            "POSITION": 32,
            "TEXCOORD_0": 34
          },
          "indices": 35,
          "material": 4,
          "mode": 4
        }
      ]
    },
    {
      "name": "Object_7",
      "primitives": [
        {
          "attributes": {
            "NORMAL": 37,
            "POSITION": 36,
            "TEXCOORD_0": 38
          },
          "indices": 39,
          "material": 4,
          "mode": 4
        }
      ]
    },
    {
      "name": "Object_8",
      "primitives": [
        {
          "attributes": {
            "NORMAL": 41,
            "POSITION": 40,
            "TEXCOORD_0": 42
          },
          "indices": 43,
          "material": 5,
          "mode": 4
        }
      ]
    },
    {
      "name": "Object_9",
      "primitives": [
        {
          "attributes": {
            "NORMAL": 45,
            "POSITION": 44,
            "TEXCOORD_0": 46
          },
          "indices": 47,
          "material": 4,
          "mode": 4
        }
      ]
    },
    {
      "name": "Object_10",
      "primitives": [
        {
          "attributes": {
            "NORMAL": 49,
            "POSITION": 48,
            "TEXCOORD_0": 50
          },
          "indices": 51,
          "material": 4,
          "mode": 4
        }
      ]
    },
    {
      "name": "Object_11",
      "primitives": [
        {
          "attributes": {
            "NORMAL": 53,
            "POSITION": 52,
            "TEXCOORD_0": 54
          },
          "indices": 55,
          "material": 6,
          "mode": 4
        }
      ]
    }
  ],
  "nodes": [
    {
      "children": [
        1
      ],
      "matrix": [
        1.0,
        0.0,
        0.0,
        0.0,
        0.0,
        2.220446049250313e-16,
        -1.0,
        0.0,
        0.0,
        1.0,
        2.220446049250313e-16,
        0.0,
        0.0,
        0.0,
        0.0,
        1.0
      ],
      "name": "Sketchfab_model"
    },
    {
      "children": [
        2
      ],
      "name": "root"
    },
    {
      "children": [
        3,
        7,
        11,
        15
      ],
      "matrix": [
        1.0,
        0.0,
        0.0,
        0.0,
        0.0,
        2.220446049250313e-16,
        1.0,
        0.0,
        0.0,
        -1.0,
        2.220446049250313e-16,
        0.0,
        0.0,
        0.0,
        0.0,
        1.0
      ],
      "name": "GLTF_SceneRootNode"
    },
    {
      "children": [
        4,
        5,
        6
      ],
      "matrix": [
        -0.5802764446605213,
        0.0,
        -0.8144195772279452,
        0.0,
        0.0,
        1.0,
        0.0,
        0.0,
        0.8144195772279452,
        0.0,
        -0.5802764446605213,
        0.0,
        -4.319424629211426,
        0.0,
        0.12079048156738281,
        1.0
      ],
      "name": "HEINEKEN smashed can_0"
    },
    {
      "mesh": 0,
      "name": "Object_4"
    },
    {
      "mesh": 1,
      "name": "Object_5"
    },
    {
      "mesh": 2,
      "name": "Object_6"
    },
    {
      "children": [
        8,
        9,
        10
      ],
      "matrix": [
        1.0,
        0.0,
        0.0,
        0.0,
        0.0,
        1.0,
        0.0,
        0.0,
        0.0,
        0.0,
        1.0,
        0.0,
        -1.4472923278808594,
        0.0,
        0.0,
        1.0
      ],
      "name": "HEINEKEN CAN_1"
    },
    {
      "mesh": 3,
      "name": "Object_8"
    },
    {
      "mesh": 4,
      "name": "Object_9"
    },
    {
      "mesh": 5,
      "name": "Object_10"
    },
    {
      "children": [
        12,
        13,
        14
      ],
      "matrix": [
        0.016847049817442894,
        0.0,
        0.0,
        0.0,
        0.0,
        0.01684209704399109,
        0.0,
        0.0,
        0.0,
        0.0,
        0.01685996539890766,
        0.0,
        4.63582181930542,
        0.0,
        0.0,
        1.0
      ],
      "name": "STELLA ARTOIS_2"
    },
    {
      "mesh": 6,
      "name": "Object_12"
    },
    {
      "mesh": 7,
      "name": "Object_13"
    },
    {
      "mesh": 8,
      "name": "Object_14"
    },
    {
      "children": [
        16,
        17,
        18
      ],
      "matrix": [
        0.016847049817442894,
        0.0,
        0.0,
        0.0,
        0.0,
        0.01684209704399109,
        0.0,
        0.0,
        0.0,
        0.0,
        0.01685996539890766,
        0.0,
        1.6159292459487915,
        0.0,
        0.0,
        1.0
      ],
      "name": "BUD LIGHT_3"
    },
    {
      "mesh": 9,
      "name": "Object_16"
    },
    {
      "mesh": 10,
      "name": "Object_17"
    },
    {
      "mesh": 11,
      "name": "Object_18"
    }
  ],
  "samplers": [
    {
      "magFilter": 9729,
      "minFilter": 9987,
      "wrapS": 10497,
      "wrapT": 10497
    }
  ],
  "scene": 0,
  "scenes": [
    {
      "name": "Sketchfab_Scene",
      "nodes": [
        0
      ]
    }
  ],
  "textures": [
    {
      "sampler": 0,
      "source": 0
    },
    {
      "sampler": 0,
      "source": 1
    },
    {
      "sampler": 0,
      "source": 2
    },
    {
      "sampler": 0,
      "source": 3
    },
    {
      "sampler": 0,
      "source": 4
    },
    {
      "sampler": 0,
      "source": 5
    },
    {
      "sampler": 0,
      "source": 6
    },
    {
      "sampler": 0,
      "source": 7
    },
    {
      "sampler": 0,
      "source": 8
    },
    {
      "sampler": 0,
      "source": 9
    }
  ]
}
